<svg xmlns="http://www.w3.org/2000/svg" xmlns:xlink="http://www.w3.org/1999/xlink" width="572" height="254" fill="none"><style>.B{fill:#2f4249}.C{fill:#fff}.D{opacity:.2}.E{fill:#2f444a}.F{fill:#2f464b}</style><g class="C"><path d="M420.661 156.397h-48.596v88.068h48.596v-88.068z"/><path d="M416.106 163.989h-39.485v77.439h39.485v-77.439zm0-4.555h-39.485v3.036h39.485v-3.036z"/></g><g class="B"><path d="M440.404 253.576h-88.081c-.806 0-1.578-.32-2.148-.89a3.04 3.04 0 0 1 2.148-5.184h88.081a3.04 3.04 0 0 1 2.147.889 3.037 3.037 0 0 1 0 4.295 3.04 3.04 0 0 1-2.147.89zm-19.743-9.111h-48.596a1.52 1.52 0 0 1-1.518-1.518v-88.068a1.52 1.52 0 0 1 1.518-1.519h48.596a1.52 1.52 0 0 1 1.519 1.519v88.068c0 .402-.16.789-.445 1.073a1.52 1.52 0 0 1-1.074.445zm-47.077-3.037h45.559v-85.031h-45.559v85.031zm42.522-77.439h-39.485a.757.757 0 0 1-.759-.759.76.76 0 0 1 .759-.76h39.485a.76.76 0 0 1 .759.76.757.757 0 0 1-.759.759z"/><use xlink:href="#B"/><path d="M416.106 212.578h-39.485a1.52 1.52 0 0 1-1.519-1.518 1.52 1.52 0 0 1 .445-1.074 1.517 1.517 0 0 1 1.074-.444h39.485c.402 0 .789.159 1.073.444a1.52 1.52 0 0 1 0 2.148 1.52 1.52 0 0 1-1.073.444z"/><use xlink:href="#B" y="48.589"/><path d="M416.865 244.465h-41.003a.76.76 0 0 1-.76-.759v-85.032a.762.762 0 0 1 .76-.759h41.003a.76.76 0 0 1 .759.759v85.032a.757.757 0 0 1-.759.759zm-40.244-1.518h39.485v-83.513h-39.485v83.513z"/><use xlink:href="#C"/><use xlink:href="#D"/><use xlink:href="#E"/><use xlink:href="#D" x="12.149"/><use xlink:href="#F"/><use xlink:href="#C" y="6.074"/><use xlink:href="#D" y="6.074"/><use xlink:href="#E" y="6.074"/><use xlink:href="#D" x="12.149" y="6.074"/><use xlink:href="#F" y="6.074"/><path d="M385.733 180.692h-3.037a.762.762 0 0 1-.76-.76.76.76 0 0 1 .76-.759h3.037a.757.757 0 0 1 .759.759.76.76 0 0 1-.759.76z"/><use xlink:href="#G"/><path d="M397.882 180.692h-3.037a.76.76 0 0 1-.759-.76c0-.201.08-.394.222-.537a.76.76 0 0 1 .537-.222h3.037a.76.76 0 0 1 .537.222.763.763 0 0 1 .222.537.76.76 0 0 1-.222.537.756.756 0 0 1-.537.223z"/><use xlink:href="#G" x="12.149"/><path d="M410.031 180.692h-3.037a.76.76 0 0 1-.759-.76c0-.201.08-.394.222-.537a.76.76 0 0 1 .537-.222h3.037a.76.76 0 0 1 .76.759.762.762 0 0 1-.76.76z"/><use xlink:href="#C" y="24.295"/><use xlink:href="#D" y="24.295"/><use xlink:href="#E" y="24.295"/><use xlink:href="#D" x="12.149" y="24.295"/><use xlink:href="#F" y="24.295"/><use xlink:href="#H"/><use xlink:href="#I"/><use xlink:href="#J"/><use xlink:href="#I" x="12.149"/><use xlink:href="#K"/><path d="M385.733 204.986h-3.037a.76.76 0 0 1-.76-.759.76.76 0 0 1 .76-.759h3.037a.757.757 0 0 1 .537 1.296.757.757 0 0 1-.537.222z"/><use xlink:href="#L"/><path d="M397.882 204.986h-3.037a.76.76 0 0 1-.537-.222.763.763 0 0 1 0-1.074.76.76 0 0 1 .537-.222h3.037a.76.76 0 0 1 .537.222.763.763 0 0 1 0 1.074.76.76 0 0 1-.537.222z"/><use xlink:href="#L" x="12.149"/><path d="M410.031 204.986h-3.037a.76.76 0 0 1-.537-.222.763.763 0 0 1 0-1.074.76.76 0 0 1 .537-.222h3.037a.76.76 0 0 1 .76.759.76.76 0 0 1-.76.759z"/><use xlink:href="#H" y="18.221"/><use xlink:href="#I" y="18.221"/><use xlink:href="#J" y="18.221"/><use xlink:href="#I" x="12.149" y="18.221"/><use xlink:href="#K" y="18.221"/><path d="M385.733 223.207h-3.037a.76.76 0 0 1-.76-.759.76.76 0 0 1 .76-.759h3.037c.201 0 .394.08.537.222a.76.76 0 0 1 .222.537.757.757 0 0 1-.759.759z"/><use xlink:href="#M"/><use xlink:href="#E" y="54.663"/><use xlink:href="#M" x="12.149"/><path d="M410.031 223.207h-3.037a.76.76 0 0 1-.537-.222.763.763 0 0 1-.222-.537.76.76 0 0 1 .759-.759h3.037a.76.76 0 0 1 .76.759.76.76 0 0 1-.76.759z"/><use xlink:href="#N"/><use xlink:href="#O"/><use xlink:href="#P"/><use xlink:href="#O" x="12.149"/><use xlink:href="#Q"/><use xlink:href="#N" y="10.629"/><use xlink:href="#O" y="10.629"/><use xlink:href="#P" y="10.629"/><use xlink:href="#O" x="12.149" y="10.629"/><use xlink:href="#Q" y="10.629"/><path d="M429.773 252.057h-66.819a1.52 1.52 0 0 1-1.074-.445 1.516 1.516 0 0 1-.445-1.073v-7.592a1.52 1.52 0 0 1 1.519-1.519h66.819a1.52 1.52 0 0 1 1.519 1.519v7.592c0 .402-.16.789-.445 1.073a1.52 1.52 0 0 1-1.074.445zm-65.301-3.037h63.783v-4.555h-63.783v4.555z"/></g><path d="M428.255 244.465h-63.783v3.037h63.783v-3.037z" class="C"/><g class="B"><use xlink:href="#R"/><use xlink:href="#S"/><use xlink:href="#S" x="6.075"/><path d="M388.011 251.298a.76.76 0 0 1-.759-.759v-4.556a.757.757 0 0 1 .759-.759.76.76 0 0 1 .537.222.763.763 0 0 1 .222.537v4.556a.76.76 0 0 1-.222.536.756.756 0 0 1-.537.223z"/><use xlink:href="#S" x="18.224"/><use xlink:href="#T"/><use xlink:href="#T" x="6.074"/><use xlink:href="#T" x="12.149"/><use xlink:href="#S" x="42.522"/><use xlink:href="#T" x="24.298"/></g><path d="M417.624 217.133c48.597 0 88.081 3.037 88.081 3.037v4.555s-39.484-3.036-88.081-3.036-88.08 3.036-88.08 3.036v-4.555s39.484-3.037 88.08-3.037z" class="C"/><path d="M505.705 226.244h-.121c-.395 0-39.94-3.037-87.96-3.037s-87.564 3.037-87.959 3.037a1.52 1.52 0 0 1-.62-.084 1.5 1.5 0 0 1-.534-.326 1.507 1.507 0 0 1-.486-1.109v-4.555a1.52 1.52 0 0 1 1.397-1.518c.395 0 40.062-3.037 88.202-3.037s87.808 3.037 88.203 3.037a1.52 1.52 0 0 1 1.397 1.518v4.555a1.517 1.517 0 0 1-.486 1.109 1.52 1.52 0 0 1-1.033.41zm-88.081-6.074c42.628 0 78.605 2.354 86.562 2.916v-1.519c-7.456-.531-43.615-2.93-86.562-2.93s-79.105 2.399-86.562 2.93v1.519c7.958-.562 43.934-2.916 86.562-2.916z" class="E"/><use xlink:href="#U" class="F"/><g class="C"><path d="M378.14 185.247h-7.593v65.291h7.593v-65.291z"/><path d="M378.14 233.836h-7.593v3.037h7.593v-3.037zm0-10.629h-7.593v3.037h7.593v-3.037z"/></g><path d="M379.658 253.576h-10.63a1.52 1.52 0 0 1-1.519-1.519v-15.184a1.82 1.82 0 0 1 .076-.486l1.443-4.312v-5.467l-1.352-2.718a1.517 1.517 0 0 1 .274-1.761l1.078-1.063v-37.338c0-.402.16-.789.445-1.073a1.52 1.52 0 0 1 1.074-.445h7.593a1.52 1.52 0 0 1 1.518 1.518v37.338l1.079 1.063a1.52 1.52 0 0 1 .422.836c.049.317-.003.641-.149.925l-1.352 2.718v5.467l1.443 4.312a1.82 1.82 0 0 1 .076.486v15.184a1.533 1.533 0 0 1-.937 1.403 1.53 1.53 0 0 1-.582.116zm-9.111-3.037h7.593v-13.423l-1.443-4.312a1.825 1.825 0 0 1-.076-.486v-6.074c.002-.238.059-.472.167-.683l1.018-2.05-.744-.744a1.507 1.507 0 0 1-.441-1.078v-36.442h-4.556v36.442a1.513 1.513 0 0 1-.44 1.078l-.744.744 1.017 2.05a1.5 1.5 0 0 1 .167.683v6.074a1.786 1.786 0 0 1-.076.486l-1.442 4.312v13.423z" class="E"/><g class="F"><path d="M379.659 236.873h-10.631v1.518h10.631v-1.518z"/><use xlink:href="#U" x="-86.562" y="-12.148"/><use xlink:href="#V"/><use xlink:href="#V" y="-19.739"/><use xlink:href="#U" x="-86.562" y="-22.776"/><path d="M379.658 188.284h-10.63a.76.76 0 0 1-.759-.76.76.76 0 0 1 .759-.759h10.63a.761.761 0 0 1 .76.759.758.758 0 0 1-.76.76z"/><use xlink:href="#V" y="-30.368"/><use xlink:href="#U" x="-86.562"/><use xlink:href="#U" x="-86.562" y="4.555"/></g><path d="M376.621 200.431h-4.556v1.518h4.556v-1.518zm0-15.184h-4.556v1.518h4.556v-1.518zm0 25.813h-4.556v1.518h4.556v-1.518z" class="C"/><path d="M374.343 252.816a.757.757 0 0 1-.759-.759V182.21a.76.76 0 0 1 .222-.537.763.763 0 0 1 .537-.222.76.76 0 0 1 .759.759v69.847c0 .201-.08.394-.222.537a.76.76 0 0 1-.537.222z" class="F"/><g class="C"><path d="M464.702 185.247h-7.593v65.291h7.593v-65.291z"/><path d="M464.702 233.836h-7.593v3.037h7.593v-3.037zm0-10.629h-7.593v3.037h7.593v-3.037z"/></g><path d="M466.221 253.576H455.59a1.52 1.52 0 0 1-1.518-1.519v-15.184a1.78 1.78 0 0 1 .076-.486l1.442-4.312v-5.467l-1.351-2.718a1.517 1.517 0 0 1-.149-.925 1.52 1.52 0 0 1 .422-.836l1.078-1.063v-37.338c0-.402.16-.789.445-1.073a1.52 1.52 0 0 1 1.074-.445h7.593a1.52 1.52 0 0 1 1.074.445c.285.284.445.671.445 1.073v37.338l1.078 1.063a1.52 1.52 0 0 1 .422.836c.049.317-.003.641-.149.925l-1.351 2.718v5.467l1.442 4.312a1.78 1.78 0 0 1 .076.486v15.184a1.524 1.524 0 0 1-.444 1.074 1.53 1.53 0 0 1-.493.329 1.525 1.525 0 0 1-.581.116zm-9.112-3.037h7.593v-13.423l-1.443-4.312a1.825 1.825 0 0 1-.076-.486v-6.074c.002-.238.059-.472.167-.683l1.018-2.05-.744-.744a1.523 1.523 0 0 1-.328-.495 1.53 1.53 0 0 1-.113-.583v-36.442h-4.555v36.442a1.53 1.53 0 0 1-.113.583 1.523 1.523 0 0 1-.328.495l-.744.744 1.017 2.05c.109.211.166.445.168.683v6.074a1.866 1.866 0 0 1-.076.486l-1.443 4.312v13.423z" class="E"/><g class="F"><path d="M466.221 236.873H455.59v1.518h10.631v-1.518z"/><use xlink:href="#U" y="-12.148"/><use xlink:href="#V" x="86.562"/><use xlink:href="#V" x="86.562" y="-19.739"/><use xlink:href="#U" y="-22.776"/><path d="M466.221 188.284H455.59a.76.76 0 0 1-.759-.76.76.76 0 0 1 .759-.759h10.631a.76.76 0 0 1 .759.759.76.76 0 0 1-.759.76z"/><use xlink:href="#V" x="86.562" y="-30.368"/><use xlink:href="#U"/><use xlink:href="#U" y="4.555"/></g><path d="M463.183 200.431h-4.555v1.518h4.555v-1.518zm0-15.184h-4.555v1.518h4.555v-1.518zm0 25.813h-4.555v1.518h4.555v-1.518z" class="C"/><g class="F"><path d="M460.905 252.816a.76.76 0 0 1-.759-.759V182.21a.76.76 0 0 1 .759-.759.76.76 0 0 1 .76.759v69.847a.76.76 0 0 1-.76.759zm-131.361-31.887a.76.76 0 0 1-.564-.157.764.764 0 0 1-.129-1.074.76.76 0 0 1 .51-.287c11.755-2.93 32.985-19.451 40.548-31.537a.75.75 0 0 1 .466-.336.753.753 0 0 1 .567.093.75.75 0 0 1 .335.466.755.755 0 0 1-.092.566c-7.867 12.603-29.173 29.154-41.459 32.236l-.182.03zm176.161 0h-.182c-12.286-3.036-33.592-19.633-41.459-32.236a.72.72 0 0 1-.102-.274.737.737 0 0 1 .01-.292.74.74 0 0 1 .121-.266.756.756 0 0 1 .488-.303.76.76 0 0 1 .293.011.73.73 0 0 1 .266.121c.08.057.148.13.2.214 7.593 12.147 28.854 28.607 40.547 31.537.1.012.196.044.284.093a.78.78 0 0 1 .362.46.77.77 0 0 1 .022.298.75.75 0 0 1-.092.283.756.756 0 0 1-.194.227.77.77 0 0 1-.564.158v-.031zm-88.081-4.555c-12.68 0-32.772-17.446-40.122-29.214a.734.734 0 0 1-.102-.274.74.74 0 0 1 .131-.559.756.756 0 0 1 .214-.2.77.77 0 0 1 .274-.102.76.76 0 0 1 .293.01.765.765 0 0 1 .266.121.77.77 0 0 1 .2.214c7.183 11.464 26.697 28.486 38.846 28.486s31.664-17.022 38.847-28.486a.77.77 0 0 1 .2-.214.765.765 0 0 1 .266-.121.76.76 0 0 1 .293-.01.77.77 0 0 1 .488.302c.057.08.098.171.121.266a.74.74 0 0 1 .01.293.75.75 0 0 1-.102.274c-7.35 11.753-27.442 29.214-40.123 29.214z"/><path d="M363.713 219.411a.76.76 0 0 1-.76-.759v-21.258a.76.76 0 0 1 .76-.759.757.757 0 0 1 .759.759v21.258a.757.757 0 0 1-.759.759zm21.261-1.519a.76.76 0 0 1-.537-.222.756.756 0 0 1-.223-.537v-21.258c0-.201.08-.394.223-.536a.76.76 0 0 1 1.296.536v21.258a.76.76 0 0 1-.222.537.763.763 0 0 1-.537.222zm6.074 0a.763.763 0 0 1-.537-.222.76.76 0 0 1-.222-.537v-15.184a.757.757 0 0 1 .759-.759.76.76 0 0 1 .76.759v15.184c0 .202-.08.395-.223.537a.76.76 0 0 1-.537.222zm6.075.001a.756.756 0 0 1-.537-.223.76.76 0 0 1-.223-.537v-10.628c0-.202.08-.395.223-.537a.76.76 0 0 1 .537-.223c.202 0 .394.08.536.223a.76.76 0 0 1 .223.537v10.628c0 .202-.08.395-.223.537a.76.76 0 0 1-.536.223z"/><use xlink:href="#W"/><path d="M450.275 217.892a.76.76 0 0 1-.759-.759v-21.258a.76.76 0 0 1 .759-.759.76.76 0 0 1 .759.759v21.258a.76.76 0 0 1-.222.537.763.763 0 0 1-.537.222zm-6.075 0a.763.763 0 0 1-.537-.222.76.76 0 0 1-.222-.537v-15.184a.757.757 0 0 1 .759-.759.76.76 0 0 1 .537.222.763.763 0 0 1 .222.537v15.184a.76.76 0 0 1-.759.759zm-6.074.001a.76.76 0 0 1-.759-.76v-10.628a.76.76 0 0 1 .759-.76.76.76 0 0 1 .759.76v10.628a.76.76 0 0 1-.759.76z"/><use xlink:href="#W" x="28.854"/><path d="M357.638 219.411a.757.757 0 0 1-.759-.759v-15.184a.76.76 0 0 1 .759-.76c.202 0 .395.08.537.223a.76.76 0 0 1 .223.537v15.184a.76.76 0 0 1-.76.759zm-6.074 0a.76.76 0 0 1-.76-.759v-10.629a.76.76 0 0 1 .76-.759c.201 0 .394.08.537.222a.76.76 0 0 1 .222.537v10.629a.757.757 0 0 1-.759.759zm-6.075 0a.757.757 0 0 1-.759-.759v-6.074a.757.757 0 0 1 .759-.759.76.76 0 0 1 .537.222.764.764 0 0 1 .223.537v6.074a.764.764 0 0 1-.223.537.76.76 0 0 1-.537.222z"/></g><path d="M511.78 253.575H323.469a3.04 3.04 0 0 1-3.037-3.036 3.04 3.04 0 0 1 3.037-3.037H511.78a3.04 3.04 0 0 1 2.147.889 3.037 3.037 0 0 1 0 4.295 3.04 3.04 0 0 1-2.147.889z" class="E"/><path d="M471.536 219.411a.76.76 0 0 1-.537-.222.763.763 0 0 1-.222-.537v-21.258c0-.201.08-.394.222-.537a.76.76 0 0 1 .537-.222.757.757 0 0 1 .759.759v21.258a.757.757 0 0 1-.759.759zm6.074 0a.757.757 0 0 1-.759-.759v-15.184a.76.76 0 0 1 .759-.76.76.76 0 0 1 .759.76v15.184c0 .201-.08.394-.222.537a.76.76 0 0 1-.537.222zm6.075 0a.76.76 0 0 1-.537-.222.763.763 0 0 1-.222-.537v-10.629a.76.76 0 0 1 .759-.759c.201 0 .394.08.537.222a.76.76 0 0 1 .222.537v10.629a.757.757 0 0 1-.759.759zm6.074 0a.76.76 0 0 1-.759-.759v-6.074a.76.76 0 0 1 .759-.759.76.76 0 0 1 .76.759v6.074a.76.76 0 0 1-.76.759z" class="F"/><g class="C"><path d="M346.249 215.615H300.69v34.924h45.559v-34.924zm-30.373-92.623v-18.221l6.075-25.813h3.037l6.074 25.813v18.221h-15.186z"/><path d="M334.1 180.692v-57.7h-7.594v-13.666l-3.037-1.518-3.037 1.518v13.666h-7.593v57.7h-1.519v54.663h24.298v-54.663H334.1z"/></g><path d="M317.395 212.578v-13.665c0-.835-.334-1.519-.76-1.519s-.759-.683-.759-1.518v-7.592a1.52 1.52 0 0 0-1.519-1.519h-1.518v47.071h6.074v-18.221c0-.835-.334-1.518-.759-1.518s-.759-.683-.759-1.519zM327.266 108.567l-2.278-.759 1.518 3.036v12.148h3.038v-10.629a4.1 4.1 0 0 0-2.278-3.796z" style="mix-blend-mode:multiply" class="D B"/><g class="F"><path d="M369.028 253.576H277.91a3.04 3.04 0 0 1-3.037-3.037c0-.805.32-1.578.89-2.148a3.04 3.04 0 0 1 2.147-.889h91.118a3.04 3.04 0 0 1 2.148.889 3.037 3.037 0 0 1-2.148 5.185z"/><path d="M347.767 252.057h-48.596a1.52 1.52 0 0 1-1.074-.445 1.516 1.516 0 0 1-.445-1.073v-36.442a1.52 1.52 0 0 1 1.519-1.519h13.668a1.52 1.52 0 0 1 1.518 1.519v19.739h18.224v-19.739a1.52 1.52 0 0 1 1.519-1.519h13.667a1.52 1.52 0 0 1 1.519 1.519v36.442c0 .402-.16.789-.445 1.073a1.52 1.52 0 0 1-1.074.445zm-47.077-3.037h45.559v-33.405h-10.631v19.74a1.516 1.516 0 0 1-1.518 1.518h-21.261a1.52 1.52 0 0 1-1.074-.445 1.516 1.516 0 0 1-.445-1.073v-19.74h-10.63v33.405z"/><path d="M312.839 215.615h-9.112a1.52 1.52 0 0 1-1.519-1.518v-16.703c0-.402.16-.789.445-1.073a1.52 1.52 0 0 1 1.074-.445h9.112a1.52 1.52 0 0 1 1.518 1.518v16.703a1.52 1.52 0 0 1-1.518 1.518zm-7.593-3.036h6.074v-13.666h-6.074v13.666z"/></g><path d="M311.32 122.992h-1.519v1.518h1.519v-1.518zm25.817 0h-1.519v1.518h1.519v-1.518z" class="C"/><g class="F"><path d="M343.211 215.615H334.1a1.52 1.52 0 0 1-1.519-1.518v-16.703c0-.402.16-.789.445-1.073a1.52 1.52 0 0 1 1.074-.445h9.111a1.52 1.52 0 0 1 1.074.445c.285.284.445.671.445 1.073v16.703a1.52 1.52 0 0 1-1.519 1.518zm-7.593-3.036h6.075v-13.666h-6.075v13.666zm-22.779-13.666h-6.075a1.52 1.52 0 0 1-1.518-1.519v-9.11a1.52 1.52 0 0 1 1.518-1.519h6.075a1.52 1.52 0 0 1 1.518 1.519v9.11a1.52 1.52 0 0 1-1.518 1.519zm-4.556-3.037h3.037v-6.074h-3.037v6.074z"/><path d="M340.174 198.913H334.1a1.52 1.52 0 0 1-1.519-1.519v-9.11a1.52 1.52 0 0 1 1.519-1.519h6.074a1.52 1.52 0 0 1 1.519 1.519v9.11a1.52 1.52 0 0 1-1.519 1.519zm-4.556-3.037h3.037v-6.074h-3.037v6.074z"/><path d="M337.137 189.802a1.52 1.52 0 0 1-1.074-.445 1.516 1.516 0 0 1-.445-1.073v-6.074H334.1a1.52 1.52 0 0 1-1.074-.445 1.516 1.516 0 0 1-.445-1.073V124.51h-1.519a1.52 1.52 0 0 1-1.518-1.518v-18.221c0-4.996-4.435-20.119-5.68-24.295h-.79c-1.245 4.176-5.679 19.314-5.679 24.295v18.221a1.52 1.52 0 0 1-1.519 1.518h-1.519v56.182a1.52 1.52 0 0 1-1.518 1.518h-1.519v6.074c0 .402-.16.789-.445 1.073a1.52 1.52 0 0 1-1.074.445 1.516 1.516 0 0 1-1.518-1.518v-7.592a1.52 1.52 0 0 1 .445-1.074 1.516 1.516 0 0 1 1.073-.445h1.519v-56.181a1.52 1.52 0 0 1 1.519-1.519h1.518v-16.702c0-6.226 5.893-25.449 6.075-26.254.097-.323.3-.604.575-.799a1.52 1.52 0 0 1 .944-.279h3.037a1.52 1.52 0 0 1 .944.279c.275.195.477.476.574.799.243.805 6.075 20.028 6.075 26.254v16.702h1.519c.402 0 .789.16 1.073.445a1.52 1.52 0 0 1 .445 1.074v56.181h1.519a1.52 1.52 0 0 1 1.519 1.519v7.592c0 .402-.16.789-.445 1.073a1.52 1.52 0 0 1-1.074.445z"/><path d="M323.469 80.476a1.52 1.52 0 0 1-1.518-1.518V66.81a1.52 1.52 0 0 1 1.518-1.518 1.52 1.52 0 0 1 1.519 1.518v12.147a1.52 1.52 0 0 1-1.519 1.518zm6.075 28.091a.76.76 0 0 1-.76-.759c0-1.41-.56-2.762-1.556-3.758a5.32 5.32 0 0 0-3.759-1.557c-1.41 0-2.761.56-3.758 1.557a5.31 5.31 0 0 0-1.557 3.758.757.757 0 0 1-.759.759.76.76 0 0 1-.76-.759 6.833 6.833 0 0 1 13.668 0 .757.757 0 0 1-.759.759zm0-6.074a.76.76 0 0 1-.76-.759 5.32 5.32 0 0 0-1.556-3.758 5.316 5.316 0 0 0-9.074 3.758.757.757 0 0 1-.759.759.76.76 0 0 1-.76-.759 6.83 6.83 0 0 1 2.002-4.832 6.837 6.837 0 0 1 4.832-2.001 6.83 6.83 0 0 1 6.834 6.833.757.757 0 0 1-.759.759zm-1.519-7.592a.76.76 0 0 1-.759-.759c0-1.007-.4-1.972-1.112-2.684a3.8 3.8 0 0 0-2.685-1.112 3.795 3.795 0 0 0-3.796 3.796.76.76 0 0 1-1.297.537.76.76 0 0 1-.222-.537 5.315 5.315 0 0 1 9.074-3.758 5.31 5.31 0 0 1 1.556 3.758.76.76 0 0 1-.759.759zm-1.519-6.833a.76.76 0 0 1-.759-.759 2.28 2.28 0 0 0-2.278-2.278 2.28 2.28 0 0 0-2.278 2.278.76.76 0 0 1-.759.759.76.76 0 0 1-.759-.759 3.795 3.795 0 0 1 3.796-3.796 3.8 3.8 0 0 1 2.685 1.112 3.795 3.795 0 0 1 1.112 2.684.76.76 0 0 1-.76.759z"/><path d="M324.988 81.995a.76.76 0 0 1-.76-.759c0-.926-.455-1.519-.759-1.519s-.759.592-.759 1.519a.76.76 0 0 1-.76.759.76.76 0 0 1-.759-.759c0-1.701 1.002-3.037 2.278-3.037s2.278 1.336 2.278 3.037a.76.76 0 0 1-.759.759zm7.593 42.515h-5.315a.76.76 0 0 1-.537-.222.756.756 0 0 1-.223-.537v-11.388a5.04 5.04 0 0 0-.546-2.429 2.95 2.95 0 0 0-3.913-1.007 2.94 2.94 0 0 0-1.068 1.007 5.03 5.03 0 0 0-.547 2.429v11.388c0 .202-.08.395-.223.537a.76.76 0 0 1-.536.222h-5.316a.763.763 0 0 1-.537-.222.76.76 0 0 1-.222-.537.757.757 0 0 1 .759-.759h4.556v-10.629a6.547 6.547 0 0 1 .82-3.31 4.563 4.563 0 0 1 1.629-1.432 4.56 4.56 0 0 1 4.214 0c.65.339 1.209.831 1.629 1.432a6.547 6.547 0 0 1 .82 3.31v10.629h4.556a.757.757 0 0 1 .759.759.76.76 0 0 1-.222.537.763.763 0 0 1-.537.222zm-19.742 3.037a.706.706 0 0 1-.29-.058.71.71 0 0 1-.242-.17l-4.556-4.555a.72.72 0 0 1-.216-.383.714.714 0 0 1 .049-.437.76.76 0 0 1 .278-.341.763.763 0 0 1 .421-.13h4.556a.76.76 0 0 1 .759.76.76.76 0 0 1-.759.759h-2.718l3.249 3.264a.73.73 0 0 1 .17.242c.04.092.06.19.06.29a.72.72 0 0 1-.06.289.71.71 0 0 1-.17.242.704.704 0 0 1-.241.17.71.71 0 0 1-.29.058zm21.261 0a.703.703 0 0 1-.29-.058.71.71 0 0 1-.242-.17.737.737 0 0 1-.23-.531.74.74 0 0 1 .06-.29.76.76 0 0 1 .17-.242l3.25-3.264H334.1a.756.756 0 0 1-.537-.223.76.76 0 0 1 0-1.073.76.76 0 0 1 .537-.223h4.556c.15.001.296.046.42.13a.76.76 0 0 1 .278.341.714.714 0 0 1-.167.82l-4.556 4.555a.714.714 0 0 1-.241.17.71.71 0 0 1-.29.058z"/></g><path d="M311.32 198.913h-6.074v13.665h6.074v-13.665zm30.373 0h-6.075v13.665h6.075v-13.665zm-30.373-9.111h-3.037v6.074h3.037v-6.074zm27.335 0h-3.037v6.074h3.037v-6.074z" class="C"/><g class="F"><path d="M323.469 108.567a.76.76 0 0 1-.402-.115.757.757 0 0 1-.281-.31l-1.519-3.037a.76.76 0 0 1 .349-1.017.76.76 0 0 1 .581-.037.766.766 0 0 1 .437.386l1.519 3.037a.774.774 0 0 1 .03.579.77.77 0 0 1-.38.438.836.836 0 0 1-.334.076z"/><path d="M323.469 108.567a.84.84 0 0 1-.334-.076.77.77 0 0 1-.38-.438.774.774 0 0 1 .031-.579l1.518-3.037a.766.766 0 0 1 .437-.386.76.76 0 0 1 .581.037c.181.088.32.245.385.436a.76.76 0 0 1-.036.581l-1.518 3.037a.764.764 0 0 1-.684.425zm0-6.074a.76.76 0 0 1-.683-.425l-1.519-3.037a.76.76 0 0 1 .349-1.017.76.76 0 0 1 1.018.349l1.519 3.037a.774.774 0 0 1 .03.579.77.77 0 0 1-.38.438.803.803 0 0 1-.334.076z"/><path d="M323.469 102.493a.817.817 0 0 1-.334 0 .77.77 0 0 1-.38-.438.774.774 0 0 1 .031-.579l1.518-3.037a.76.76 0 0 1 .437-.385.75.75 0 0 1 .294-.04.76.76 0 0 1 .287.076.756.756 0 0 1 .425.731.755.755 0 0 1-.076.287l-1.518 3.037a.76.76 0 0 1-.295.267.75.75 0 0 1-.389.082zm0-6.073a.75.75 0 0 1-.402-.115.766.766 0 0 1-.281-.311l-1.519-3.037a.76.76 0 0 1 .349-1.017.76.76 0 0 1 1.018.349l1.519 3.037a.774.774 0 0 1-.35 1.017.82.82 0 0 1-.334.076zm0-6.074a.71.71 0 0 1-.531-.228l-1.519-1.518a.75.75 0 0 1-.163-.244.747.747 0 0 1-.057-.288.75.75 0 0 1 .22-.532.757.757 0 0 1 .244-.163.75.75 0 0 1 .575 0 .757.757 0 0 1 .244.163l1.519 1.518c.072.068.13.15.17.242a.74.74 0 0 1 .06.29.74.74 0 0 1-.06.29c-.04.091-.098.174-.17.242s-.15.131-.242.17a.72.72 0 0 1-.29.058z"/><path d="M323.469 90.346a.706.706 0 0 1-.29-.058.71.71 0 0 1-.241-.17.725.725 0 0 1-.171-.242.74.74 0 0 1-.06-.29.74.74 0 0 1 .06-.29.735.735 0 0 1 .171-.242l1.518-1.518a.757.757 0 0 1 .244-.163.75.75 0 0 1 .575 0 .746.746 0 0 1 .244.163.75.75 0 0 1 .163.244.747.747 0 0 1 .057.288.75.75 0 0 1-.22.532l-1.518 1.518a.72.72 0 0 1-.532.228zm0 6.074a.82.82 0 0 1-.334 0 .77.77 0 0 1-.38-.438.774.774 0 0 1 .031-.579l1.518-3.037a.76.76 0 0 1 .437-.385.77.77 0 0 1 .294-.04.76.76 0 0 1 .287.076.756.756 0 0 1 .425.731.755.755 0 0 1-.076.287l-1.518 3.037a.76.76 0 0 1-.684.349zm-3.037 13.665a.705.705 0 0 1-.29-.057.72.72 0 0 1-.242-.17l-1.518-1.519a.75.75 0 1 1 1.063-1.063l1.518 1.519a.725.725 0 0 1 .231.531.74.74 0 0 1-.06.29.746.746 0 0 1-.171.242.704.704 0 0 1-.241.17.7.7 0 0 1-.29.057zm6.075 0a.7.7 0 0 1-.29-.057.71.71 0 0 1-.242-.17.743.743 0 0 1-.17-.242.72.72 0 0 1 .17-.821l1.519-1.519a.75.75 0 1 1 1.063 1.063l-1.519 1.519a.71.71 0 0 1-.242.17.7.7 0 0 1-.289.057zm-7.594 1.519a.756.756 0 0 1-.531-.213.77.77 0 0 1-.228-.546.76.76 0 0 1 .213-.532.77.77 0 0 1 .539-.218c.201 0 .394.078.539.218a.81.81 0 0 1 .228.547.79.79 0 0 1-.213.531.81.81 0 0 1-.547.213zm1.519-9.111a.72.72 0 0 1-.29-.057.725.725 0 0 1-.242-.171.74.74 0 0 1-.227-.531.755.755 0 0 1 .212-.531.77.77 0 0 1 1.078 0 .767.767 0 0 1 .016 1.078.777.777 0 0 1-.547.212zm0-6.073a.79.79 0 0 1-.532-.213.804.804 0 0 1-.227-.547.753.753 0 0 1 .125-.422.77.77 0 0 1 .338-.282.76.76 0 0 1 .437-.047.757.757 0 0 1 .39.204.77.77 0 0 1 .228.547.79.79 0 0 1-.212.531.78.78 0 0 1-.547.228zm3.037-12.148a.79.79 0 0 1-.531-.212.805.805 0 0 1-.228-.547.753.753 0 0 1 .125-.422.77.77 0 0 1 .338-.282.76.76 0 0 1 .828.157.78.78 0 0 1 .228.547.76.76 0 0 1-.213.531.78.78 0 0 1-.547.228zm3.037 18.221a.717.717 0 0 1-.289-.057.72.72 0 0 1-.242-.171.855.855 0 0 1-.168-.242.76.76 0 0 1-.06-.289.756.756 0 0 1 .213-.531.77.77 0 0 1 1.078 0 .776.776 0 0 1 .228.546.79.79 0 0 1-.213.532.776.776 0 0 1-.547.212zm0-6.073a.79.79 0 0 1-.531-.213.78.78 0 0 1-.228-.547.76.76 0 0 1 .125-.422.77.77 0 0 1 .338-.282.76.76 0 0 1 .828.157.805.805 0 0 1 .228.547.76.76 0 0 1-.213.531.805.805 0 0 1-.547.228zm1.519 15.184a.76.76 0 0 1-.531-.213.77.77 0 0 1-.228-.547.793.793 0 0 1 .212-.531.76.76 0 0 1 .39-.216.755.755 0 0 1 .788.321.76.76 0 0 1 .128.426.76.76 0 0 1-.212.532.78.78 0 0 1-.547.228zm-3.797 113.881a.76.76 0 0 1-.759-.759V112.363a.76.76 0 0 1 .759-.759.76.76 0 0 1 .76.759v112.363a.76.76 0 0 1-.76.759zm-4.555 0a.76.76 0 0 1-.76-.759v-94.142a.76.76 0 0 1 .76-.759.76.76 0 0 1 .759.759v94.142a.76.76 0 0 1-.759.759zm9.111 0a.757.757 0 0 1-.759-.759v-94.142a.76.76 0 0 1 .222-.537.763.763 0 0 1 .537-.222.76.76 0 0 1 .76.759v94.142a.76.76 0 0 1-.76.759z"/><use xlink:href="#X"/><use xlink:href="#Y"/><use xlink:href="#N" x="-69.857" y="-95.66"/><use xlink:href="#Q" x="-75.932" y="-95.66"/><use xlink:href="#Z"/><use xlink:href="#a"/><use xlink:href="#Z" y="4.555"/><use xlink:href="#a" y="4.555"/><use xlink:href="#b"/><use xlink:href="#c"/><use xlink:href="#X" y="22.776"/><use xlink:href="#Y" y="22.776"/><use xlink:href="#Z" y="18.221"/><use xlink:href="#a" y="18.221"/><use xlink:href="#d"/><use xlink:href="#e"/><use xlink:href="#f"/><use xlink:href="#g"/><use xlink:href="#X" y="40.997"/><use xlink:href="#Y" y="40.997"/><use xlink:href="#h"/><use xlink:href="#i"/><use xlink:href="#d" y="18.221"/><use xlink:href="#e" y="18.221"/><path d="M315.876 183.728h-6.075a.76.76 0 0 1-.536-.222.756.756 0 0 1-.223-.537.76.76 0 0 1 .759-.759h6.075a.757.757 0 0 1 .759.759.76.76 0 0 1-.222.537.763.763 0 0 1-.537.222zm21.261 0h-6.075a.763.763 0 0 1-.537-.222.76.76 0 0 1-.222-.537.757.757 0 0 1 .759-.759h6.075a.757.757 0 0 1 .759.759.76.76 0 0 1-.222.537.763.763 0 0 1-.537.222z"/><use xlink:href="#N" x="-69.857" y="-40.997"/><use xlink:href="#i" x="-24.298" y="18.221"/><path d="M308.283 201.95h-4.556a.76.76 0 0 1-.759-.76.76.76 0 0 1 .759-.759h4.556a.76.76 0 0 1 .759.759.76.76 0 0 1-.759.76zm34.928 0h-4.556a.755.755 0 0 1-.536-.223.76.76 0 0 1-.223-.537c0-.202.08-.394.223-.536a.76.76 0 0 1 .536-.223h4.556c.202 0 .395.08.537.223a.76.76 0 0 1 0 1.073.76.76 0 0 1-.537.223zm0 4.555h-4.556a.755.755 0 0 1-.536-.223.76.76 0 0 1 0-1.073.76.76 0 0 1 .536-.223h4.556c.202 0 .395.08.537.223a.76.76 0 0 1 .223.537c0 .202-.08.394-.223.536a.76.76 0 0 1-.537.223zm0 4.555h-4.556a.76.76 0 0 1-.759-.759c0-.202.08-.395.223-.537a.76.76 0 0 1 .536-.222h4.556a.76.76 0 0 1 .537.222.756.756 0 0 1 .223.537.76.76 0 0 1-.76.759zm-34.928-4.555h-4.556a.76.76 0 0 1-.759-.759.76.76 0 0 1 .759-.76h4.556a.76.76 0 0 1 .759.76.76.76 0 0 1-.759.759zm0 4.555h-4.556a.76.76 0 0 1-.537-.222.763.763 0 0 1-.222-.537.76.76 0 0 1 .759-.759h4.556c.201 0 .394.08.537.222a.76.76 0 0 1 .222.537.757.757 0 0 1-.759.759z"/><use xlink:href="#E" x="-57.708" y="24.295"/><use xlink:href="#Q" x="-75.932" y="-40.997"/><use xlink:href="#h" y="18.221"/><use xlink:href="#i" y="18.221"/><use xlink:href="#f" y="31.887"/><use xlink:href="#g" y="31.887"/><use xlink:href="#X" y="72.884"/><use xlink:href="#Y" y="72.884"/><use xlink:href="#N" x="-69.857" y="-22.776"/><use xlink:href="#Q" x="-75.932" y="-22.776"/><use xlink:href="#h" y="36.442"/><use xlink:href="#i" y="36.442"/><use xlink:href="#Z" y="77.439"/><use xlink:href="#a" y="77.439"/><use xlink:href="#b" y="72.884"/><use xlink:href="#c" y="72.884"/><use xlink:href="#h" y="50.108"/><use xlink:href="#j"/><use xlink:href="#j" y="3.037"/><use xlink:href="#i" y="50.108"/><path d="M302.968 237.632a.76.76 0 0 1-.537-.222.756.756 0 0 1-.223-.537v-18.221a.76.76 0 0 1 .76-.759.757.757 0 0 1 .759.759v18.221a.76.76 0 0 1-.222.537.763.763 0 0 1-.537.222z"/><use xlink:href="#k"/><use xlink:href="#l"/><use xlink:href="#m"/><use xlink:href="#n"/><use xlink:href="#o"/><use xlink:href="#p"/><use xlink:href="#q"/><use xlink:href="#r"/><use xlink:href="#o" x="24.298"/><use xlink:href="#p" x="24.298"/><use xlink:href="#o" x="31.891"/><use xlink:href="#p" x="31.891"/><use xlink:href="#s"/><path d="M343.971 251.298a.76.76 0 0 1-.537-.222.763.763 0 0 1-.222-.537v-6.074c0-.201.08-.394.222-.537a.76.76 0 0 1 1.074 0 .763.763 0 0 1 .222.537v6.074c0 .201-.08.394-.222.537a.76.76 0 0 1-.537.222z"/><use xlink:href="#q" x="-24.298"/><use xlink:href="#r" x="-24.298"/><use xlink:href="#m" x="12.149"/><use xlink:href="#n" x="12.149"/><use xlink:href="#o" x="19.742"/><use xlink:href="#p" x="19.742"/><path d="M306.005 237.632a.76.76 0 0 1-.759-.759v-18.221c0-.201.08-.394.222-.537a.76.76 0 0 1 .537-.222.757.757 0 0 1 .759.759v18.221a.76.76 0 0 1-.222.537.763.763 0 0 1-.537.222z"/><use xlink:href="#t"/><path d="M337.896 237.632a.763.763 0 0 1-.537-.222.76.76 0 0 1-.222-.537v-18.221a.757.757 0 0 1 .759-.759.76.76 0 0 1 .537.222.763.763 0 0 1 .222.537v18.221a.76.76 0 0 1-.759.759z"/><use xlink:href="#t" x="31.891"/><path d="M343.971 237.632a.76.76 0 0 1-.759-.759v-18.221c0-.201.08-.394.222-.537a.76.76 0 0 1 1.074 0 .763.763 0 0 1 .222.537v18.221a.76.76 0 0 1-.759.759zm-20.502 14.425a1.52 1.52 0 0 1-1.518-1.518v-7.592a1.52 1.52 0 0 1 1.518-1.519 1.52 1.52 0 0 1 1.519 1.519v7.592c0 .402-.16.789-.445 1.073a1.52 1.52 0 0 1-1.074.445z"/></g><g class="C"><path d="M164.772 138.176h-3.174v3.037h3.174v-3.037zm-31.891 0h-2.886v3.037h2.886v-3.037zm14.426-15.184-9.111 7.592v1.518h18.223v-1.518l-9.112-7.592zm12.15 12.147h-24.299v7.592h24.299v-7.592z"/><path d="M164.012 194.357V144.25h-7.593v-6.074h-18.223v6.074h-7.593v50.107h-1.519v31.887h36.447v-31.887h-1.519zm7.594 34.924h-48.597v18.221h48.597v-18.221z"/></g><g class="E"><path d="M192.867 253.576h-91.118a3.035 3.035 0 0 1-3.038-3.037 3.04 3.04 0 0 1 3.038-3.037h91.118a3.04 3.04 0 0 1 2.147.889 3.037 3.037 0 0 1-2.147 5.185z"/><path d="M173.124 252.057h-51.633a1.52 1.52 0 0 1-1.074-.445 1.516 1.516 0 0 1-.445-1.073v-22.777a1.52 1.52 0 0 1 1.519-1.518h4.556v-31.887a1.52 1.52 0 0 1 1.518-1.518h1.519v-50.108c0-.403.16-.789.445-1.073a1.52 1.52 0 0 1 1.074-.445h1.518v-7.592a1.52 1.52 0 0 1 1.519-1.519h27.335a1.52 1.52 0 0 1 1.519 1.519v7.592h1.518a1.517 1.517 0 0 1 1.519 1.518v50.108h1.519a1.52 1.52 0 0 1 1.518 1.518v31.887h4.556a1.52 1.52 0 0 1 1.519 1.518v22.777c0 .402-.16.789-.445 1.073a1.52 1.52 0 0 1-1.074.445zm-50.115-3.037h48.597v-19.739h-4.556a1.52 1.52 0 0 1-1.519-1.519v-31.886h-1.519c-.402 0-.789-.16-1.073-.445a1.52 1.52 0 0 1-.445-1.074V144.25h-1.519a1.52 1.52 0 0 1-1.518-1.519v-7.592h-24.299v7.592a1.52 1.52 0 0 1-1.518 1.519h-1.519v50.107a1.52 1.52 0 0 1-.445 1.074 1.516 1.516 0 0 1-1.073.445h-1.519v31.886a1.52 1.52 0 0 1-1.519 1.519h-4.556v19.739z"/><path d="M157.938 135.139a1.52 1.52 0 0 1-1.074-.445 1.516 1.516 0 0 1-.445-1.073v-2.263l-9.112-6.498-9.111 6.498v2.263c0 .402-.16.789-.445 1.073a1.52 1.52 0 0 1-2.148 0 1.516 1.516 0 0 1-.445-1.073v-3.037a1.53 1.53 0 0 1 .171-.692 1.52 1.52 0 0 1 .467-.538l10.631-7.592a1.52 1.52 0 0 1 1.761 0l10.631 7.592a1.52 1.52 0 0 1 .467.538 1.53 1.53 0 0 1 .171.692v3.037c0 .402-.16.789-.445 1.073a1.52 1.52 0 0 1-1.074.445zm9.112 94.142h-39.485a1.52 1.52 0 0 1-1.518-1.518 1.52 1.52 0 0 1 1.518-1.519h39.485a1.52 1.52 0 0 1 1.518 1.519 1.52 1.52 0 0 1-1.518 1.518z"/><path d="M140.474 251.298a.76.76 0 0 1-.76-.759v-22.776a.762.762 0 0 1 .76-.76.76.76 0 0 1 .759.76v22.776a.757.757 0 0 1-.759.759z"/><use xlink:href="#u"/><path d="M157.179 251.298a.76.76 0 0 1-.76-.759v-22.776a.762.762 0 0 1 .76-.76.762.762 0 0 1 .759.76v22.776a.76.76 0 0 1-.759.759z"/><use xlink:href="#u" x="16.705"/><path d="M149.585 252.057h-4.555a.76.76 0 0 1-.76-.759v-12.147c0-.202.08-.395.223-.537a.76.76 0 0 1 .537-.223h4.555c.202 0 .395.08.537.223a.76.76 0 0 1 .223.537v12.147a.76.76 0 0 1-.76.759zm-3.796-1.518h3.037V239.91h-3.037v10.629zm15.186-106.289h-5.315a.76.76 0 0 1-.759-.76v-5.314h-15.187v5.314a.76.76 0 0 1-.759.76h-5.315a.756.756 0 0 1-.537-.223.76.76 0 0 1-.223-.537c0-.202.08-.394.223-.536a.76.76 0 0 1 .537-.223h4.556v-5.314a.76.76 0 0 1 .759-.76h16.705a.76.76 0 0 1 .759.76v5.314h4.556c.202 0 .395.08.537.223a.76.76 0 0 1 0 1.073.76.76 0 0 1-.537.223zm-31.132-.76a.763.763 0 0 1-.537-.222.76.76 0 0 1-.222-.537v-5.314a.76.76 0 0 1 .759-.76h3.797a.76.76 0 0 1 .759.76.757.757 0 0 1-.759.759h-3.037v4.555a.76.76 0 0 1-.76.759zm34.929 0a.76.76 0 0 1-.76-.759v-4.555h-3.037a.757.757 0 0 1-.759-.759.76.76 0 0 1 .759-.76h3.797a.76.76 0 0 1 .759.76v5.314a.76.76 0 0 1-.222.537.763.763 0 0 1-.537.222z"/></g><path d="M139.714 229.281h-1.518v18.221h1.518v-18.221zm9.112 10.629h-3.037v7.592h3.037v-7.592z" class="C"/><g class="E"><use xlink:href="#v"/><use xlink:href="#w"/><path d="M160.975 156.397H133.64a.761.761 0 0 1-.76-.759.758.758 0 0 1 .76-.76h27.335a.762.762 0 0 1 .76.76.762.762 0 0 1-.76.759z"/><use xlink:href="#w" y="18.221"/><use xlink:href="#x"/><use xlink:href="#w" y="36.442"/><use xlink:href="#x" y="18.221"/><use xlink:href="#y"/><path d="M164.013 204.986h-33.41a.76.76 0 0 1-.76-.759.76.76 0 0 1 .76-.759h33.41a.76.76 0 0 1 .759.759.76.76 0 0 1-.759.759zm0 6.074h-33.41a.76.76 0 0 1-.76-.759c0-.202.08-.395.223-.537a.76.76 0 0 1 .537-.222h33.41a.76.76 0 0 1 .536.222.756.756 0 0 1 .223.537.76.76 0 0 1-.759.759z"/><use xlink:href="#y" y="18.221"/><path d="M164.013 223.207h-33.41a.76.76 0 0 1-.537-.222.756.756 0 0 1-.223-.537.76.76 0 0 1 .76-.759h33.41a.76.76 0 0 1 .759.759c0 .202-.08.395-.223.537a.76.76 0 0 1-.536.222zm-28.855 10.629h-10.63a.76.76 0 0 1-.537-.222.763.763 0 0 1-.222-.537.76.76 0 0 1 .759-.759h10.63a.76.76 0 0 1 .537.222.756.756 0 0 1 .223.537.76.76 0 0 1-.76.759z"/><use xlink:href="#v" y="91.105"/><path d="M135.158 239.91h-10.63a.76.76 0 0 1-.759-.759.76.76 0 0 1 .759-.76h10.63a.762.762 0 0 1 .76.76.762.762 0 0 1-.76.759z"/><use xlink:href="#z"/><path d="M135.158 245.984h-10.63a.76.76 0 0 1-.759-.76c0-.201.08-.394.222-.537a.76.76 0 0 1 .537-.222h10.63a.76.76 0 0 1 .76.759c0 .202-.08.395-.223.537a.76.76 0 0 1-.537.223zm34.929 0h-10.63a.756.756 0 0 1-.537-.223.76.76 0 0 1 .537-1.296h10.63a.76.76 0 0 1 .537.222.763.763 0 0 1 .222.537.76.76 0 0 1-.759.76zm0-12.148h-10.63a.76.76 0 0 1-.76-.759c0-.202.08-.395.223-.537a.76.76 0 0 1 .537-.222h10.63a.76.76 0 0 1 .759.759c0 .201-.08.394-.222.537a.76.76 0 0 1-.537.222z"/></g><g class="C"><path d="M274.873 75.921h-18.224v112.363h18.224V75.921z"/><path d="M271.835 103.252v81.995h-12.149v-81.995h-9.112v130.584h30.373V103.252h-9.112z"/></g><path d="M258.168 233.836v-40.997h3.037a1.52 1.52 0 0 1 1.518 1.518v39.479h-4.555z" style="mix-blend-mode:multiply" class="D B"/><path d="M267.28 68.329v-9.111h-3.038v9.111l-3.037 4.555h9.112l-3.037-4.555z" class="C"/><g class="E"><path d="M317.394 253.576H214.127a3.04 3.04 0 0 1-3.037-3.037c0-.805.32-1.578.89-2.148a3.04 3.04 0 0 1 2.147-.889h103.267a3.04 3.04 0 0 1 2.148.889 3.037 3.037 0 0 1-2.148 5.185z"/><path d="M302.208 252.057h-72.894a1.52 1.52 0 0 1-1.074-.445 1.516 1.516 0 0 1-.445-1.073v-15.184a1.52 1.52 0 0 1 1.519-1.519h72.894a1.52 1.52 0 0 1 1.519 1.519v15.184c0 .402-.16.789-.445 1.073a1.52 1.52 0 0 1-1.074.445zm-71.376-3.037h69.857v-12.147h-69.857v12.147z"/><path d="M258.168 236.873H244.5a1.52 1.52 0 0 1-1.518-1.519v-40.997a1.52 1.52 0 0 1 1.518-1.518h13.668a1.52 1.52 0 0 1 1.074.445c.285.284.445.671.445 1.073v40.997a1.52 1.52 0 0 1-1.519 1.519zm-12.149-3.037h10.63v-37.96h-10.63v37.96z"/></g><path d="M261.205 83.513h-1.518v100.215h6.074v-81.994c0-.835-.334-1.518-.759-1.518h-2.278V85.031c0-.403-.16-.789-.445-1.074a1.52 1.52 0 0 0-1.074-.445z" style="mix-blend-mode:multiply" class="D B"/><g class="E"><path d="M287.022 236.873h-13.668a1.52 1.52 0 0 1-1.519-1.519v-40.997c0-.402.16-.789.445-1.073a1.52 1.52 0 0 1 1.074-.445h13.668a1.516 1.516 0 0 1 1.518 1.518v40.997a1.52 1.52 0 0 1-.445 1.074 1.516 1.516 0 0 1-1.073.445zm-12.15-3.037h10.631v-37.96h-10.631v37.96z"/><path d="M294.615 236.873h-7.593a1.52 1.52 0 0 1-1.074-.445 1.516 1.516 0 0 1-.445-1.073v-34.924a1.52 1.52 0 0 1 1.519-1.518h7.593a1.52 1.52 0 0 1 1.519 1.518v34.924c0 .402-.16.789-.445 1.073a1.52 1.52 0 0 1-1.074.445zm-6.074-3.037h4.555v-31.887h-4.555v31.887zm-44.041 3.037h-7.593a1.52 1.52 0 0 1-1.074-.445 1.516 1.516 0 0 1-.445-1.073v-34.924a1.52 1.52 0 0 1 1.519-1.518h7.593a1.52 1.52 0 0 1 1.519 1.518v34.924c0 .402-.16.789-.445 1.073a1.52 1.52 0 0 1-1.074.445zm-6.075-3.037h4.556v-31.887h-4.556v31.887z"/><use xlink:href="#AA"/></g><path d="M300.689 236.873h-69.857v10.629h69.857v-10.629z" class="C"/><g class="E"><use xlink:href="#AA" x="33.41"/><path d="M250.574 103.252a1.52 1.52 0 0 1-1.518-1.518V85.031a1.52 1.52 0 0 1 1.518-1.519h9.112a1.52 1.52 0 0 1 1.519 1.519 1.52 1.52 0 0 1-1.519 1.519h-7.593v15.184a1.52 1.52 0 0 1-1.519 1.518zm30.373 0a1.52 1.52 0 0 1-1.519-1.518V86.55h-7.593a1.52 1.52 0 0 1-1.518-1.518 1.52 1.52 0 0 1 1.518-1.519h9.112a1.52 1.52 0 0 1 1.519 1.519v16.703a1.52 1.52 0 0 1-1.519 1.518z"/><path d="M276.391 86.55a1.52 1.52 0 0 1-1.518-1.519v-9.11h-18.224v9.11c0 .403-.16.789-.445 1.074a1.52 1.52 0 0 1-2.148 0 1.52 1.52 0 0 1-.444-1.074V74.402a1.52 1.52 0 0 1 1.518-1.518h21.261a1.52 1.52 0 0 1 1.074.445c.285.285.445.671.445 1.074v10.629c0 .403-.16.789-.445 1.074a1.52 1.52 0 0 1-1.074.445z"/><path d="M273.354 75.921c-.236 0-.468-.055-.679-.16a1.52 1.52 0 0 1-.536-.447l-4.556-6.074a1.52 1.52 0 0 1-.303-.911v-9.11h-3.038v9.11a1.52 1.52 0 0 1-.303.911l-4.556 6.074a1.52 1.52 0 0 1-2.126.304 1.52 1.52 0 0 1-.592-1 1.516 1.516 0 0 1 .288-1.126l4.252-5.664V57.7c0-.403.16-.789.445-1.074a1.52 1.52 0 0 1 1.074-.445h6.074a1.52 1.52 0 0 1 1.074.445c.285.285.445.671.445 1.074v10.128l4.252 5.664a1.533 1.533 0 0 1 .289 1.126 1.508 1.508 0 0 1-.197.559 1.52 1.52 0 0 1-.396.441 1.517 1.517 0 0 1-.911.304z"/><path d="M265.761 59.218a1.52 1.52 0 0 1-1.519-1.519V34.924a1.52 1.52 0 0 1 1.519-1.518 1.52 1.52 0 0 1 1.519 1.518V57.7a1.52 1.52 0 0 1-1.519 1.519zM244.5 195.876a1.52 1.52 0 0 1-1.518-1.519v-9.11a1.52 1.52 0 0 1 .444-1.074 1.517 1.517 0 0 1 1.074-.444h4.556c.403 0 .789.159 1.074.444a1.52 1.52 0 0 1-1.074 2.592h-3.037v7.592a1.52 1.52 0 0 1-1.519 1.519zm42.522 0a1.52 1.52 0 0 1-1.519-1.519v-7.592h-3.037a1.52 1.52 0 0 1-1.074-2.592 1.517 1.517 0 0 1 1.074-.444h4.556c.403 0 .789.159 1.074.444a1.52 1.52 0 0 1 .445 1.074v9.11a1.52 1.52 0 0 1-1.519 1.519zm-16.705-9.111h-9.112a1.52 1.52 0 0 1-1.518-1.518v-83.513a1.52 1.52 0 0 1 1.518-1.518 1.52 1.52 0 0 1 1.519 1.518v81.994h6.074v-81.994a1.52 1.52 0 0 1 1.519-1.518 1.52 1.52 0 0 1 1.519 1.518v83.513a1.52 1.52 0 0 1-1.519 1.518z"/><use xlink:href="#AB"/><use xlink:href="#AB" x="21.261"/><use xlink:href="#AC"/><use xlink:href="#AC" x="12.149"/><use xlink:href="#AD"/><use xlink:href="#AD" x="28.854"/></g><path d="M253.612 236.873h-4.556v10.629h4.556v-10.629zm28.854 0h-4.556v10.629h4.556v-10.629zm-25.817-40.997h-10.631v37.96h10.631v-37.96zm28.854 0h-10.631v37.96h10.631v-37.96zM258.168 86.55h-6.075v13.666h6.075V86.55zm21.261 0h-6.075v13.666h6.075V86.55zm-36.447 115.399h-4.556v31.887h4.556v-31.887zm4.555-15.184h-1.519v6.074h1.519v-6.074zm45.559 15.184h-4.556v31.887h4.556v-31.887zm-7.593-15.184h-1.518v6.074h1.518v-6.074z" class="C"/><g class="E"><path d="M266.52 85.791a.76.76 0 0 1-.759-.759v-4.555a.76.76 0 0 1 1.296-.537.756.756 0 0 1 .223.537v4.555a.76.76 0 0 1-.76.759zm0 7.592a.76.76 0 0 1-.759-.759v-4.555a.76.76 0 0 1 1.296-.537.756.756 0 0 1 .223.537v4.555a.76.76 0 0 1-.76.759zm0 7.592a.76.76 0 0 1-.759-.759V95.66a.76.76 0 0 1 1.296-.537.756.756 0 0 1 .223.537v4.556c0 .201-.08.394-.223.536a.76.76 0 0 1-.537.223z"/><use xlink:href="#AE"/><use xlink:href="#AE" y="7.592"/><use xlink:href="#AF"/><path d="M266.52 131.343a.757.757 0 0 1-.759-.759v-4.556a.76.76 0 0 1 .759-.759c.202 0 .395.08.537.223a.76.76 0 0 1 .223.536v4.556a.76.76 0 0 1-.76.759zm0 7.592a.757.757 0 0 1-.759-.759v-4.555a.76.76 0 0 1 .222-.537.763.763 0 0 1 .537-.222.76.76 0 0 1 .537.222.756.756 0 0 1 .223.537v4.555a.76.76 0 0 1-.76.759zm0 7.592a.763.763 0 0 1-.537-.222.76.76 0 0 1-.222-.537v-4.555a.76.76 0 0 1 .222-.537.763.763 0 0 1 .537-.222.76.76 0 0 1 .537.222.756.756 0 0 1 .223.537v4.555a.76.76 0 0 1-.76.759z"/><use xlink:href="#AG"/><use xlink:href="#AH"/><use xlink:href="#AH" y="7.592"/><path d="M266.52 176.895a.763.763 0 0 1-.537-.222.76.76 0 0 1-.222-.537v-4.555a.757.757 0 0 1 .759-.759.76.76 0 0 1 .76.759v4.555c0 .202-.08.395-.223.537a.76.76 0 0 1-.537.222z"/><use xlink:href="#AI"/><use xlink:href="#AI" y="7.592"/><path d="M263.483 100.975a.761.761 0 0 1-.76-.759V95.66a.76.76 0 0 1 .223-.537.76.76 0 0 1 1.074 0 .76.76 0 0 1 .222.537v4.556a.76.76 0 0 1-.759.759z"/><use xlink:href="#s" x="-83.525" y="-159.433"/><path d="M269.558 82.754a.76.76 0 0 1-.537-.222.756.756 0 0 1-.223-.537v-1.518a.76.76 0 0 1 .223-.537.76.76 0 0 1 1.074 0 .76.76 0 0 1 .222.537v1.518a.76.76 0 0 1-.759.759z"/><use xlink:href="#AJ"/><use xlink:href="#S" x="-123.009" y="-132.102"/><use xlink:href="#S" x="-123.009" y="-124.51"/><use xlink:href="#AK"/><use xlink:href="#AK" y="7.592"/><path d="M252.853 149.564a.76.76 0 0 1-.76-.759v-4.556a.762.762 0 0 1 .76-.759.76.76 0 0 1 .759.759v4.556a.757.757 0 0 1-.759.759z"/><use xlink:href="#AL"/><use xlink:href="#AL" y="7.592"/><use xlink:href="#AM"/><use xlink:href="#AM" y="7.592"/><use xlink:href="#AJ" y="75.921"/><use xlink:href="#AN"/><use xlink:href="#R" x="-112.379" y="-132.102"/><use xlink:href="#R" x="-112.379" y="-124.51"/><use xlink:href="#AO"/><use xlink:href="#AO" y="7.592"/><use xlink:href="#AP"/><use xlink:href="#AQ"/><use xlink:href="#AQ" y="7.592"/><use xlink:href="#AQ" y="15.184"/><use xlink:href="#AQ" y="22.776"/><use xlink:href="#AN" y="75.921"/><use xlink:href="#AN" x="16.705"/><use xlink:href="#R" x="-95.674" y="-132.102"/><use xlink:href="#R" x="-95.674" y="-124.51"/><use xlink:href="#AO" x="16.705"/><use xlink:href="#AO" x="16.705" y="7.592"/><use xlink:href="#AP" x="16.705"/><use xlink:href="#AQ" x="16.705"/><use xlink:href="#AQ" x="16.705" y="7.592"/><use xlink:href="#AQ" x="16.705" y="15.184"/><use xlink:href="#AQ" x="16.705" y="22.776"/><use xlink:href="#AN" x="16.705" y="75.921"/><use xlink:href="#AR"/><use xlink:href="#AS"/><use xlink:href="#AS" y="7.592"/><use xlink:href="#AT"/><use xlink:href="#AT" y="7.592"/><path d="M278.669 149.564a.76.76 0 0 1-.759-.759v-4.556a.761.761 0 0 1 .759-.759.758.758 0 0 1 .76.759v4.556a.76.76 0 0 1-.76.759z"/><use xlink:href="#AU"/><use xlink:href="#AU" y="7.592"/><use xlink:href="#AU" y="15.184"/><use xlink:href="#AU" y="22.776"/><use xlink:href="#AR" y="75.921"/><use xlink:href="#AJ" x="10.63" y="83.513"/><use xlink:href="#AV"/><use xlink:href="#AJ" x="16.705" y="83.513"/><use xlink:href="#AJ" x="10.63" y="91.105"/><use xlink:href="#AV" y="7.592"/><use xlink:href="#AJ" x="16.705" y="91.105"/><use xlink:href="#S" x="-112.379" y="-40.997"/><use xlink:href="#T" x="-133.64" y="-40.997"/><use xlink:href="#S" x="-106.304" y="-40.997"/><use xlink:href="#S" x="-112.379" y="-33.405"/><use xlink:href="#T" x="-133.64" y="-33.405"/><use xlink:href="#S" x="-106.304" y="-33.405"/><use xlink:href="#AW"/><use xlink:href="#AE" y="116.918"/><use xlink:href="#AW" x="6.075"/><use xlink:href="#AK" x="10.63" y="98.697"/><use xlink:href="#AF" y="109.326"/><use xlink:href="#AK" x="16.705" y="98.697"/><use xlink:href="#AK" x="-4.556" y="69.847"/><use xlink:href="#AK" x="-4.556" y="77.439"/><use xlink:href="#AX"/><use xlink:href="#AY"/><use xlink:href="#AY" y="7.592"/><use xlink:href="#AK" x="-1.519" y="69.847"/><use xlink:href="#AK" x="-1.519" y="77.439"/><use xlink:href="#AX" x="3.037"/><use xlink:href="#AY" x="3.037"/><use xlink:href="#AY" x="3.037" y="7.592"/><use xlink:href="#AZ"/><use xlink:href="#AZ" y="7.592"/><use xlink:href="#Aa"/><use xlink:href="#Aa" y="7.592"/><use xlink:href="#Aa" y="15.184"/><use xlink:href="#AK" x="24.298" y="69.847"/><use xlink:href="#AK" x="24.298" y="77.439"/><use xlink:href="#AX" x="28.854"/><use xlink:href="#AY" x="28.854"/><use xlink:href="#AY" x="28.854" y="7.592"/><use xlink:href="#AZ" x="25.817"/><use xlink:href="#AZ" x="25.817" y="7.592"/><use xlink:href="#Aa" x="25.817"/><use xlink:href="#Aa" x="25.817" y="7.592"/><use xlink:href="#Aa" x="25.817" y="15.184"/><use xlink:href="#AF" x="16.705" y="80.476"/><use xlink:href="#AF" x="16.705" y="88.068"/><use xlink:href="#AG" x="16.705" y="65.292"/><use xlink:href="#AH" x="16.705" y="65.292"/><use xlink:href="#AH" x="16.705" y="72.884"/><use xlink:href="#T" x="-159.457" y="-40.997"/><use xlink:href="#T" x="-159.457" y="-33.405"/><use xlink:href="#AE" x="-25.817" y="116.918"/><use xlink:href="#AF" x="-25.817" y="109.326"/><use xlink:href="#AS" x="12.149" y="91.105"/><use xlink:href="#AS" x="12.149" y="98.697"/><path d="M290.818 225.485a.761.761 0 0 1-.759-.759v-4.556a.761.761 0 0 1 .759-.759.758.758 0 0 1 .76.759v4.556a.762.762 0 0 1-.76.759z"/><use xlink:href="#AT" x="12.149" y="98.697"/><path d="M255.89 93.383a.76.76 0 0 1-.76-.759v-3.037a.76.76 0 0 1 .76-.759.76.76 0 0 1 .759.759v3.037a.76.76 0 0 1-.223.537.756.756 0 0 1-.536.222zm0 6.073a.76.76 0 0 1-.537-.222.756.756 0 0 1-.223-.537V95.66a.76.76 0 0 1 .76-.759.76.76 0 0 1 .759.759v3.037a.76.76 0 0 1-.223.537.756.756 0 0 1-.536.222zm19.742-6.073a.76.76 0 0 1-.76-.759v-3.037a.76.76 0 0 1 .76-.759.76.76 0 0 1 .759.759v3.037a.76.76 0 0 1-.759.759zm0 6.073a.76.76 0 0 1-.76-.759V95.66a.76.76 0 0 1 .76-.759.76.76 0 0 1 .759.759v3.037a.76.76 0 0 1-.759.759z"/><use xlink:href="#l" x="-51.634"/><use xlink:href="#k" x="-51.634"/><use xlink:href="#q" x="-57.708"/><use xlink:href="#r" x="-57.708"/><path d="M244.5 245.984h-10.631a.755.755 0 0 1-.536-.223.76.76 0 0 1 .536-1.296H244.5a.757.757 0 0 1 .759.759.76.76 0 0 1-.759.76zm53.152 0h-10.63a.756.756 0 0 1-.537-.223.76.76 0 0 1 .537-1.296h10.63a.757.757 0 0 1 .759.759.76.76 0 0 1-.759.76zm-53.152-3.037h-10.631a.755.755 0 0 1-.536-.223.76.76 0 0 1-.223-.537c0-.202.08-.394.223-.536a.76.76 0 0 1 .536-.223H244.5a.76.76 0 0 1 .759.759.76.76 0 0 1-.759.76zm0-3.037h-10.631a.755.755 0 0 1-.536-.223.76.76 0 0 1 0-1.073.76.76 0 0 1 .536-.223H244.5a.76.76 0 0 1 .759.76.76.76 0 0 1-.759.759zM297.652 242.947h-10.63a.762.762 0 0 1-.76-.76.762.762 0 0 1 .76-.759h10.63a.76.76 0 0 1 .759.759.76.76 0 0 1-.759.76z"/><use xlink:href="#z" x="127.565"/><path d="M273.354 242.947h-15.186a.76.76 0 0 1-.759-.76.76.76 0 0 1 .759-.759h15.186a.761.761 0 0 1 .76.759.758.758 0 0 1-.76.76z"/><use xlink:href="#j" x="-57.708" y="10.629"/><path d="M273.354 245.984h-15.186a.76.76 0 0 1-.759-.76c0-.201.08-.394.222-.537a.76.76 0 0 1 .537-.222h15.186a.76.76 0 0 1 .76.759.762.762 0 0 1-.76.76z"/></g><path d="m268.798 72.884-.835-1.685a7.5 7.5 0 0 1-.683-2.87v-9.111h-1.519v13.666h3.037zM290.059 201.949h-1.519v31.887h1.519v-31.887zM256.649 236.873h-1.519v10.629h1.519v-10.629zM285.503 236.873h-1.518v10.629h1.518v-10.629z" style="mix-blend-mode:multiply" class="D B"/><path d="M69.857 201.949H54.671v3.037h15.186v-3.037zm1.519 6.074H53.152v19.739h18.224v-19.739z" class="C"/><g class="B"><path d="M97.193 253.575H27.335a1.52 1.52 0 0 1-1.519-1.518v-13.666c0-.402.16-.789.445-1.073a1.52 1.52 0 0 1 1.074-.445h69.857a1.52 1.52 0 0 1 1.074.445c.285.284.445.671.445 1.073v13.666a1.52 1.52 0 0 1-1.519 1.518zm-68.338-3.036h66.82V239.91h-66.82v10.629z"/><use xlink:href="#Ab"/><use xlink:href="#Ab" x="-13.668"/><use xlink:href="#Ab" x="-25.817"/><use xlink:href="#Ab" x="25.817"/><use xlink:href="#Ab" x="13.668"/><path d="M85.043 239.91H39.484a1.52 1.52 0 0 1-1.519-1.519v-4.555a1.52 1.52 0 0 1 1.519-1.518h45.559a1.52 1.52 0 0 1 1.519 1.518v4.555a1.52 1.52 0 0 1-1.519 1.519zm-44.04-3.037h42.522v-1.519H41.003v1.519z"/><path d="M75.932 235.354H48.596a1.52 1.52 0 0 1-1.519-1.518v-4.555a1.52 1.52 0 0 1 1.519-1.519h27.335a1.52 1.52 0 0 1 1.519 1.519v4.555a1.52 1.52 0 0 1-1.519 1.518zm-25.817-3.037h24.298v-1.518H50.115v1.518z"/><path d="M72.894 230.799a1.52 1.52 0 0 1-.979-.332 1.52 1.52 0 0 1-.539-.883l-1.519-7.592a1.916 1.916 0 0 1 0-.303v-12.148a1.52 1.52 0 0 1 .167-.683l.41-.835h-16.34l.41.835a1.52 1.52 0 0 1 .167.683v12.148c.008.101.008.202 0 .303l-1.519 7.592a1.55 1.55 0 0 1-.66.985c-.342.228-.76.311-1.163.23a1.55 1.55 0 0 1-1.215-1.822l1.519-7.44v-11.631l-1.352-2.718a1.521 1.521 0 0 1-.161-.747 1.52 1.52 0 0 1 .223-.731c.135-.22.325-.403.551-.529a1.52 1.52 0 0 1 .739-.195h21.261a1.52 1.52 0 0 1 .739.195c.226.126.415.309.551.529a1.52 1.52 0 0 1 .223.731c.011.259-.045.516-.161.747l-1.352 2.718v11.631l1.519 7.44a1.52 1.52 0 0 1-.221 1.141 1.5 1.5 0 0 1-.417.421c-.165.112-.351.19-.547.23l-.334.03z"/><path d="M69.857 209.541H54.671a1.52 1.52 0 0 1-1.519-1.518v-6.074c0-.402.16-.789.445-1.073a1.52 1.52 0 0 1 1.074-.445h15.186a1.52 1.52 0 0 1 1.074.445c.285.284.445.671.445 1.073v6.074a1.52 1.52 0 0 1-1.519 1.518zm-13.668-3.036h12.149v-3.037H56.189v3.037z"/></g><path d="m69.569 176.136 1.655-1.518 1.853 1.518s-3.979 3.037-4.738 6.074c1.519 7.592-.38 6.073 0 7.592v12.147H55.81a34.65 34.65 0 0 0 .957-5.314 13.35 13.35 0 0 1 .471-6.454c1.23-3.234.228-6.271.228-7.789s.243-3.128.243-4.646a23.69 23.69 0 0 0-.289-4.905c-.349-2.611-2.081-4.98-1.2-5.785 1.655-1.518 0-6.074 0-7.592s3.356 7.592 4.176 9.11l.835-1.518a1.67 1.67 0 0 1 .539-1.077 1.674 1.674 0 0 1 2.248 0 1.67 1.67 0 0 1 .539 1.077l.729 3.037a5.298 5.298 0 0 1 1.519 3.037c.015 1.488 2.764 3.006 2.764 3.006z" class="C"/><path d="M62.264 170.063c1.519 0 1.519-3.629 1.519-4.556 0 0 1.519 3.918 0 4.677-.82.364-2.354-.121-1.519-.121zM66.152 182.088c.349 1.412-.85 6.165-.85 7.714 0 0-1.519 6.073 1.519 10.629h3.037l-1.519-10.629s0-7.592 1.519-10.629-3.037-7.592-6.075-7.592c-.82 0 1.929 3.113 1.519 4.555s.456 4.312.85 5.952zM62.264 197.394l1.519 4.555h-3.037l1.519-4.555z" style="mix-blend-mode:multiply" class="D B"/><path d="M57.708 200.431a11.35 11.35 0 0 0 4.556-4.556c1.519-3.036 1.519-4.555 3.037-6.073s-1.519 0-3.037 3.037-3.037 6.073-4.556 6.073 0 1.519 0 1.519zM63.783 185.247a8.02 8.02 0 0 1-6.075 7.592v-1.519s4.556-3.036 6.075-6.073zM62.264 174.618s-1.519 6.074-4.556 7.592 0-3.037 0-3.037l4.556-4.555zM63.783 177.655a20.306 20.306 0 0 1-1.519 7.592 5.55 5.55 0 0 1-1.877 2.12 5.54 5.54 0 0 1-2.679.916l6.075-10.628z" style="mix-blend-mode:multiply" class="D B"/><g class="B"><path d="M69.508 203.468H56.189a1.53 1.53 0 0 1-.625-.136 1.52 1.52 0 0 1-.514-.381 1.51 1.51 0 0 1-.315-.567 1.52 1.52 0 0 1-.049-.647l.562-5.482v-1.032a11.486 11.486 0 0 1 .638-5.77 10.63 10.63 0 0 0 .304-5.482 11.84 11.84 0 0 1-.167-1.67c0-.805 0-1.61.121-2.414s.122-1.519.122-2.187v-.455a23.029 23.029 0 0 0-.289-4.237 13.78 13.78 0 0 0-.79-2.733c-.562-1.518-1.2-3.204 0-4.358a8.89 8.89 0 0 0-.638-2.019 15.902 15.902 0 0 1-1.397-5.983 1.52 1.52 0 0 1 1.519-1.518 1.52 1.52 0 0 1 1.519 1.518c0 1.519 2.035 4.677 3.493 6.818a3.404 3.404 0 0 1 3.235-2.263c2.87 0 3.903 2.718 3.903 4.556v2.459a6.075 6.075 0 0 1 1.519 3.614c.268.453.637.837 1.078 1.124l.774-.729a1.52 1.52 0 0 1 1.989 0l1.853 1.518c.178.145.321.328.419.536a1.52 1.52 0 0 1 .143.664 1.522 1.522 0 0 1-.592 1.169 13.814 13.814 0 0 0-4.1 4.95c.942 4.844.683 6.165.289 7.137v.258c0 .061.38 4.631.38 6.195 0 .699.091 1.822.182 2.915l.198 2.84c.007.106.007.213 0 .319a1.518 1.518 0 0 1-.433 1.018 1.52 1.52 0 0 1-1.01.455zm-11.587-3.037h9.962c0-.441 0-.926-.106-1.397l-.197-3.158c0-1.306-.304-5.148-.364-5.846a2.52 2.52 0 0 1 .152-1.716c.106-.258.425-1.063-.516-5.801a1.41 1.41 0 0 1 0-.668 10.83 10.83 0 0 1 2.43-4.221 1.6 1.6 0 0 1-.456-.152c-.835-.47-3.538-2.125-3.538-4.373a3.816 3.816 0 0 0-1.078-1.974 1.51 1.51 0 0 1-.44-1.063v-3.036s0-1.519-.866-1.519c-.577 0-.653 1.519-.653 1.519.007.106.007.212 0 .319l-.334 1.518a1.52 1.52 0 0 1-1.276 1.169 1.53 1.53 0 0 1-.881-.16 1.52 1.52 0 0 1-.638-.629c-.167-.304-.653-.987-1.154-1.731a.275.275 0 0 1 0-.107 2.375 2.375 0 0 1-.334.456 11.66 11.66 0 0 0 .456 1.336c.444 1.095.765 2.235.957 3.401.247 1.567.354 3.152.319 4.738v.319c0 .804 0 1.609-.122 2.414s-.121 1.518-.121 2.186a9.01 9.01 0 0 0 .137 1.261 13.66 13.66 0 0 1-.471 6.969 8.35 8.35 0 0 0-.456 4.373c0 .471.091.926.091 1.352l-.501 4.221z"/><path d="M63.023 163.23a.76.76 0 0 1-.759-.76v-3.036a.76.76 0 0 1 .759-.76.76.76 0 0 1 .759.76v3.036a.76.76 0 0 1-.222.537.756.756 0 0 1-.537.223zm-.759 1.518a.706.706 0 0 1-.29-.058.71.71 0 0 1-.242-.17l-3.037-3.037a.75.75 0 0 1 .532-1.283c.2 0 .39.08.532.221l3.037 3.036a.74.74 0 0 1 .23.532.73.73 0 0 1-.06.289.72.72 0 0 1-.17.242.71.71 0 0 1-.242.17.706.706 0 0 1-.29.058z"/><path d="M63.783 164.748a.706.706 0 0 1-.29-.058.71.71 0 0 1-.242-.17.72.72 0 0 1-.17-.242.723.723 0 0 1-.06-.289.73.73 0 0 1 .06-.29.76.76 0 0 1 .17-.242l3.037-3.036a.75.75 0 0 1 .531-.221c.199 0 .391.08.532.221a.75.75 0 0 1 0 1.062l-3.037 3.037a.71.71 0 0 1-.242.17.706.706 0 0 1-.29.058zm3.037.759h-1.519a.76.76 0 0 1-.759-.759.76.76 0 0 1 .759-.759h1.519a.76.76 0 0 1 .759.759.76.76 0 0 1-.759.759zm-12.149-6.073a1.52 1.52 0 0 1-1.519-1.519v-6.073a1.52 1.52 0 0 1 1.519-1.519 1.52 1.52 0 0 1 1.519 1.519v6.073a1.52 1.52 0 0 1-1.519 1.519z"/><path d="M56.189 153.36h-3.037a1.52 1.52 0 0 1-1.074-.445 1.516 1.516 0 0 1-.445-1.073 1.52 1.52 0 0 1 1.519-1.519h3.037a1.52 1.52 0 0 1 1.519 1.519c0 .402-.16.789-.445 1.073a1.52 1.52 0 0 1-1.074.445zm1.519 28.091a.84.84 0 0 1-.334-.076.78.78 0 0 1-.38-.438.777.777 0 0 1 .031-.58 26.764 26.764 0 0 1 4.708-6.271.75.75 0 1 1 1.063 1.063 25.39 25.39 0 0 0-4.404 5.876.76.76 0 0 1-.281.311.764.764 0 0 1-.403.115zm0-6.074a.76.76 0 0 1-.691-.47.76.76 0 0 1 .16-.821 4.55 4.55 0 0 0 1.291-2.505.76.76 0 0 1 .759-.759.76.76 0 0 1 .759.759 5.83 5.83 0 0 1-1.746 3.568.71.71 0 0 1-.242.17.706.706 0 0 1-.29.058zm0 16.703a.79.79 0 0 1-.359-.091.78.78 0 0 1-.279-.244c-.111-.169-.15-.376-.111-.574s.156-.374.323-.488c0 0 4.404-3.037 5.816-5.77a.76.76 0 0 1 .436-.386.765.765 0 0 1 .581.036.76.76 0 0 1 .349 1.018c-1.519 3.188-6.075 6.24-6.333 6.377a.86.86 0 0 1-.425.122zm-1.518 9.11a.71.71 0 0 1-.532-.228.72.72 0 0 1-.17-.242.723.723 0 0 1-.06-.289.73.73 0 0 1 .23-.532l4.556-4.555a2.78 2.78 0 0 0 .668-1.351c.364-1.2.82-2.703 3.994-4.829a.765.765 0 0 1 .576-.114.77.77 0 0 1 .487.327.764.764 0 0 1 .114.575.77.77 0 0 1-.326.488c-2.734 1.807-3.037 3.036-3.387 3.993a4.096 4.096 0 0 1-1.063 1.974l-4.556 4.555a.71.71 0 0 1-.242.17.703.703 0 0 1-.29.058zm14.426-21.258a.807.807 0 0 1-.334-.076.77.77 0 0 1-.38-.438.774.774 0 0 1 .031-.579l.759-1.518a.76.76 0 0 1 .436-.386.765.765 0 0 1 .581.036.76.76 0 0 1 .349 1.018l-.759 1.518c-.063.128-.16.235-.281.311s-.26.115-.403.114zm-12.908 9.111a.75.75 0 0 1-.456-.152.76.76 0 0 1-.152-1.063 48.76 48.76 0 0 0 5.968-10.416.76.76 0 0 1 1.428.486 49.19 49.19 0 0 1-6.181 10.841.77.77 0 0 1-.608.304zm3.037 12.147a.71.71 0 0 1-.532-.228.71.71 0 0 1-.17-.242.737.737 0 0 1-.06-.289.73.73 0 0 1 .06-.29.76.76 0 0 1 .17-.242 4.02 4.02 0 0 0 1.291-2.52.75.75 0 0 1 .059-.292.74.74 0 0 1 .169-.245.73.73 0 0 1 .252-.159.74.74 0 0 1 .294-.048.777.777 0 0 1 .523.232.77.77 0 0 1 .221.527 5.4 5.4 0 0 1-1.746 3.568.71.71 0 0 1-.242.17.703.703 0 0 1-.29.058zm5.315 0a.745.745 0 0 1-.466-.161.74.74 0 0 1-.263-.416 27.92 27.92 0 0 1-.79-6.256.76.76 0 0 1 .759-.759.76.76 0 0 1 .759.759 28.87 28.87 0 0 0 .729 5.892.757.757 0 0 1 .017.296.76.76 0 0 1-.296.501.765.765 0 0 1-.268.129l-.182.015zm5.316 22.017H53.152a.76.76 0 0 1-.759-.759.76.76 0 0 1 .759-.759h18.224a.76.76 0 0 1 .759.759.76.76 0 0 1-.759.759zm0-12.147H53.152a.76.76 0 0 1-.759-.76.76.76 0 0 1 .759-.759h18.224a.76.76 0 0 1 .537.223.756.756 0 0 1 .222.536.76.76 0 0 1-.222.537.756.756 0 0 1-.537.223zm-9.112-3.037a1.52 1.52 0 0 1-1.074-.445 1.516 1.516 0 0 1-.445-1.073v-1.519c0-.403.16-.789.445-1.073a1.52 1.52 0 0 1 2.148 0c.285.284.445.67.445 1.073v1.519c0 .402-.16.789-.445 1.073a1.52 1.52 0 0 1-1.074.445zm0 22.776a1.52 1.52 0 0 1-1.074-.445 1.516 1.516 0 0 1-.445-1.073v-1.519c0-.402.16-.789.445-1.073a1.52 1.52 0 0 1 2.148 0c.285.284.445.671.445 1.073v1.519c0 .402-.16.789-.445 1.073a1.52 1.52 0 0 1-1.074.445z"/><use xlink:href="#Ac"/><use xlink:href="#Ac" x="-4.556"/><use xlink:href="#Ac" x="4.556"/><path d="M56.949 223.966a.79.79 0 0 1-.532-.212.78.78 0 0 1-.228-.547.76.76 0 0 1 .213-.531.777.777 0 0 1 1.078 0 .777.777 0 0 1 .228.546.775.775 0 0 1-.227.533.78.78 0 0 1-.533.227v-.016z"/><use xlink:href="#Ad"/><use xlink:href="#Ad" x="3.037"/><path d="M66.06 223.966a.79.79 0 0 1-.532-.212.78.78 0 0 1-.228-.547.756.756 0 0 1 .213-.531.775.775 0 0 1 1.078 0c.145.145.227.341.228.546s-.085.391-.227.533a.78.78 0 0 1-.533.227v-.016zm3.038 0a.76.76 0 0 1-.532-.212.78.78 0 0 1-.228-.547.756.756 0 0 1 .213-.531.775.775 0 0 1 1.078 0c.145.145.227.341.228.546s-.085.391-.227.533a.78.78 0 0 1-.533.227v-.016z"/></g><path d="M74.413 230.799H50.115v1.518h24.298v-1.518zm9.112 4.555H41.003v1.519h42.522v-1.519zm-22.78 4.556h-10.63v9.11h10.63v-9.11zm-25.816 0h-6.074v9.11h6.075v-9.11zm39.484 0h-10.63v9.11h10.631v-9.11zm-27.335 0h-9.112v9.11h9.112v-9.11zm48.596 0H89.6v9.11h6.075v-9.11zm-9.112 0H77.45v9.11h9.112v-9.11z" class="C"/><path d="M54.671 150.323a1.517 1.517 0 0 1-.713-.182 1.52 1.52 0 0 1-.544-.497 1.514 1.514 0 0 1-.137-1.421 1.53 1.53 0 0 1 .439-.592 1.52 1.52 0 0 1 .665-.315 1.512 1.512 0 0 1 1.368.411 1.52 1.52 0 0 1 .44 1.078c0 .402-.16.789-.445 1.073a1.52 1.52 0 0 1-1.074.445z" class="B"/><path d="M68.338 203.468H66.82v1.518h1.519v-1.518z" style="mix-blend-mode:multiply" class="D B"/><path d="M121.491 253.575H3.037a3.04 3.04 0 0 1-2.148-.889 3.036 3.036 0 0 1-.89-2.147 3.04 3.04 0 0 1 3.037-3.037H121.49a3.04 3.04 0 0 1 2.147.889 3.037 3.037 0 0 1 0 4.295 3.04 3.04 0 0 1-2.147.889z" class="B"/><path d="M92.637 241.428c5.871 0 10.63-4.759 10.63-10.629s-4.76-10.629-10.63-10.629-10.63 4.759-10.63 10.629 4.759 10.629 10.63 10.629z" class="C"/><path d="M103.267 230.799c0 5.861-6.834 10.629-10.63 10.629V220.17c3.797 0 10.63 4.768 10.63 10.629z" style="mix-blend-mode:multiply" class="D B"/><g class="B"><use xlink:href="#Ae"/><path d="M92.637 241.428a10.63 10.63 0 0 1-5.821-1.937 10.63 10.63 0 0 1-3.781-4.83 10.63 10.63 0 0 1-.482-6.115 10.627 10.627 0 0 1 8.424-8.188 10.63 10.63 0 0 1 6.1.654 10.62 10.62 0 0 1 4.722 3.915 10.623 10.623 0 0 1 1.773 5.872 10.797 10.797 0 0 1-10.934 10.629zm0-18.221a7.6 7.6 0 0 0-4.133 1.425 7.59 7.59 0 0 0-2.972 7.826 7.586 7.586 0 0 0 6.035 5.802 7.6 7.6 0 0 0 4.345-.48 7.598 7.598 0 0 0 3.36-2.796 7.6 7.6 0 0 0 1.262-4.185 7.76 7.76 0 0 0-7.897-7.592z"/></g><path d="M31.891 241.428c5.871 0 10.631-4.759 10.631-10.629s-4.759-10.629-10.631-10.629-10.63 4.759-10.63 10.629 4.759 10.629 10.63 10.629z" class="C"/><use xlink:href="#Af" style="mix-blend-mode:multiply" class="D B"/><g class="B"><use xlink:href="#Ae" x="-60.746"/><path d="M31.891 241.428a10.63 10.63 0 0 1-5.821-1.937 10.63 10.63 0 0 1-3.781-4.83 10.63 10.63 0 0 1-.482-6.115 10.627 10.627 0 0 1 8.424-8.188 10.63 10.63 0 0 1 6.1.654 10.628 10.628 0 0 1 6.496 9.787 10.797 10.797 0 0 1-3.27 7.575 10.8 10.8 0 0 1-7.665 3.054zm0-18.221a7.597 7.597 0 0 0-4.133 1.425 7.59 7.59 0 0 0-2.972 7.826 7.586 7.586 0 0 0 6.035 5.802 7.6 7.6 0 0 0 4.345-.48 7.598 7.598 0 0 0 4.622-6.981 7.759 7.759 0 0 0-2.38-5.427 7.76 7.76 0 0 0-5.517-2.165z"/></g><g class="C"><path d="M523.17 133.62a3.795 3.795 0 0 1 3.796 3.796v2.278h-7.593v-2.278a3.797 3.797 0 0 1 3.797-3.796zM525.447 139.694h-4.556v4.555h4.556v-4.555zm1.519 7.592h-7.593v13.666h7.593v-13.666zm-9.112 16.703h-3.037v22.776h3.037v-22.776zm13.668 0h-3.037v22.776h3.037v-22.776zm13.668 39.479h-44.041v44.034h44.041v-44.034z"/><path d="M528.485 186.765V162.47h-10.631v24.295h-12.149v13.666h34.929v-13.666h-12.149z"/></g><g class="E"><path d="M567.969 253.575h-91.118a3.04 3.04 0 0 1-3.037-3.036 3.04 3.04 0 0 1 3.037-3.037h91.118a3.04 3.04 0 0 1 3.037 3.037 3.04 3.04 0 0 1-3.037 3.036z"/><path d="M546.708 250.538h-47.077a1.52 1.52 0 0 1-1.519-1.518v-47.071a1.52 1.52 0 0 1 1.519-1.518h47.077a1.52 1.52 0 0 1 1.519 1.518v47.071a1.52 1.52 0 0 1-1.519 1.518zm-45.559-3.036h44.041v-44.035h-44.041v44.035z"/></g><path d="M530.003 186.765h-1.518V163.989h1.518v22.776z" style="mix-blend-mode:multiply" class="D B"/><g class="E"><path d="M545.189 203.468h-44.04a1.52 1.52 0 0 1-1.074-.445 1.523 1.523 0 0 1-.445-1.074v-9.11c0-.403.161-.789.445-1.074a1.52 1.52 0 0 1 1.074-.445h44.04a1.52 1.52 0 0 1 1.519 1.519v9.11a1.52 1.52 0 0 1-1.519 1.519zm-42.521-3.037h41.003v-6.074h-41.003v6.074z"/><path d="M542.152 194.357h-37.966a1.516 1.516 0 0 1-1.518-1.518v-6.074a1.52 1.52 0 0 1 1.518-1.518h7.594V162.47a1.52 1.52 0 0 1 1.518-1.518h19.743a1.516 1.516 0 0 1 1.518 1.518v22.777h7.593a1.52 1.52 0 0 1 1.519 1.518v6.074c0 .402-.16.789-.445 1.073a1.52 1.52 0 0 1-1.074.445zm-36.447-3.037h34.929v-3.037h-7.593a1.52 1.52 0 0 1-1.519-1.518v-22.776h-16.705v22.776a1.52 1.52 0 0 1-1.519 1.518h-7.593v3.037z"/></g><path d="M523.169 153.36a2.28 2.28 0 0 0 2.278-2.278 2.28 2.28 0 0 0-2.278-2.277 2.28 2.28 0 0 0-2.278 2.277 2.28 2.28 0 0 0 2.278 2.278z" class="C"/><g class="E"><path d="M528.484 163.989h-10.63a1.52 1.52 0 0 1-1.519-1.518v-16.703a1.52 1.52 0 0 1 .445-1.074 1.517 1.517 0 0 1 1.074-.444h10.63c.403 0 .79.159 1.074.444a1.52 1.52 0 0 1 .445 1.074v16.703a1.52 1.52 0 0 1-.445 1.073 1.517 1.517 0 0 1-1.074.445zm-9.111-3.037h7.593v-13.666h-7.593v13.666zm27.335 72.884h-47.077a.756.756 0 0 1-.537-.223.76.76 0 0 1 0-1.073.76.76 0 0 1 .537-.223h47.077c.202 0 .395.08.537.223a.76.76 0 0 1 0 1.073.756.756 0 0 1-.537.223zm0 4.555h-47.077a.76.76 0 0 1-.76-.759.76.76 0 0 1 .76-.759h47.077a.76.76 0 0 1 .537.222.763.763 0 0 1 0 1.074.76.76 0 0 1-.537.222z"/><path d="M509.502 233.077a.756.756 0 0 1-.537-.223.76.76 0 0 1-.223-.537v-30.368a.76.76 0 0 1 .76-.759.757.757 0 0 1 .759.759v30.368a.76.76 0 0 1-.759.76zm27.335 0a.76.76 0 0 1-.759-.76v-30.368a.757.757 0 0 1 .759-.759.76.76 0 0 1 .76.759v30.368c0 .202-.08.395-.223.537a.76.76 0 0 1-.537.223zm-31.891-30.368a.756.756 0 0 1-.537-.223.76.76 0 0 1-.223-.537v-9.11c0-.202.08-.395.223-.537a.76.76 0 0 1 .537-.222c.201 0 .394.08.537.222a.76.76 0 0 1 .222.537v9.11a.76.76 0 0 1-.759.76zm13.668-14.426h-5.315a.76.76 0 0 1-.537-.222.756.756 0 0 1-.223-.537.76.76 0 0 1 .76-.759h4.555V162.47c0-.201.08-.394.223-.536a.76.76 0 0 1 1.296.536v25.054a.76.76 0 0 1-.222.537.763.763 0 0 1-.537.222zm15.945 0h-6.833a.76.76 0 0 1-.537-.222.756.756 0 0 1-.223-.537V162.47c0-.201.08-.394.223-.536a.76.76 0 0 1 .537-.223c.202 0 .394.08.536.223a.76.76 0 0 1 .223.536v24.295h6.074a.76.76 0 0 1 .76.759c0 .202-.08.395-.223.537a.76.76 0 0 1-.537.222zm6.834 14.426a.76.76 0 0 1-.759-.76v-9.11a.76.76 0 0 1 .222-.537.763.763 0 0 1 .537-.222.76.76 0 0 1 .537.222.756.756 0 0 1 .223.537v9.11c0 .202-.08.395-.223.537a.76.76 0 0 1-.537.223z"/></g><path d="M526.966 137.416v2.278h-3.037v-2.278a3.94 3.94 0 0 0-.344-2.072 3.95 3.95 0 0 0-1.357-1.602 3.89 3.89 0 0 1 .942-.122 3.795 3.795 0 0 1 3.796 3.796z" style="mix-blend-mode:multiply" opacity=".04" class="B"/><g class="E"><path d="M526.966 147.286a1.52 1.52 0 0 1-1.519-1.518v-8.351c0-.605-.24-1.184-.667-1.611a2.28 2.28 0 0 0-1.611-.667 2.277 2.277 0 0 0-2.278 2.278v8.351a1.52 1.52 0 0 1-.444 1.074 1.523 1.523 0 0 1-1.074.444 1.52 1.52 0 0 1-1.519-1.518v-8.351a5.31 5.31 0 0 1 1.557-3.758 5.315 5.315 0 0 1 7.517 0 5.31 5.31 0 0 1 1.557 3.758v8.351a1.52 1.52 0 0 1-1.519 1.518z"/><path d="M526.966 139.694h-7.593a.76.76 0 0 1-.76-.759.76.76 0 0 1 .76-.759h7.593a.757.757 0 0 1 .537 1.296.757.757 0 0 1-.537.222zm1.519 16.703h-10.631a.76.76 0 0 1-.759-.76.76.76 0 0 1 .759-.759h10.631c.201 0 .394.08.536.223a.76.76 0 0 1 0 1.073.76.76 0 0 1-.536.223zm4.556 13.665h-19.742a.76.76 0 0 1-.76-.759.76.76 0 0 1 .76-.759h19.742a.757.757 0 0 1 .759.759.76.76 0 0 1-.222.537.763.763 0 0 1-.537.222zm-9.872-15.943c-.6 0-1.188-.178-1.687-.512a3.03 3.03 0 0 1-1.119-1.363 3.035 3.035 0 0 1 .659-3.309 3.03 3.03 0 0 1 1.555-.831 3.04 3.04 0 0 1 1.755.173 3.034 3.034 0 0 1 .985 4.953 3.04 3.04 0 0 1-2.148.889zm0-4.555c-.3 0-.594.089-.843.256a1.52 1.52 0 0 0-.56.681 1.514 1.514 0 0 0 .329 1.655 1.52 1.52 0 0 0 .778.415c.295.059.6.029.877-.086a1.52 1.52 0 0 0 .938-1.403c0-.402-.16-.789-.445-1.073a1.52 1.52 0 0 0-1.074-.445z"/><path d="M525.447 151.841h-1.518a.76.76 0 0 1-.537-.222.756.756 0 0 1-.223-.537.76.76 0 0 1 .76-.759h1.518a.76.76 0 0 1 .76.759c0 .202-.08.395-.223.537a.76.76 0 0 1-.537.222z"/><use xlink:href="#Ag"/><use xlink:href="#Ah"/><use xlink:href="#Ai"/><use xlink:href="#Aj"/><use xlink:href="#Aj" x="4.556"/><use xlink:href="#Aj" x="4.556" y="10.629"/><use xlink:href="#Ak"/><use xlink:href="#Al"/><use xlink:href="#Am"/><use xlink:href="#Ah" y="39.479"/><use xlink:href="#Am" x="-4.556"/><use xlink:href="#An"/><use xlink:href="#Am" x="-12.149"/><use xlink:href="#Ah" x="-12.149" y="39.479"/><use xlink:href="#Ao"/><use xlink:href="#Ap"/><use xlink:href="#Aq"/><use xlink:href="#Ap" x="9.112"/><use xlink:href="#Ap" x="13.668"/><use xlink:href="#Ap" x="16.705"/><use xlink:href="#Ar"/><use xlink:href="#As"/><use xlink:href="#m" x="206.534" y="-28.85"/><use xlink:href="#At"/><use xlink:href="#At" x="4.556"/><use xlink:href="#At" x="7.593"/><use xlink:href="#Au"/><use xlink:href="#Av"/><path d="M512.539 217.893a.756.756 0 0 1-.537-.223.76.76 0 0 1-.222-.537v-1.518a.76.76 0 0 1 .759-.759c.201 0 .394.08.537.222a.76.76 0 0 1 .222.537v1.518a.76.76 0 0 1-.759.76z"/><use xlink:href="#Aw"/><use xlink:href="#Aw" x="4.556"/><use xlink:href="#Aw" x="7.593"/><use xlink:href="#Am" x="12.149" y="25.813"/><use xlink:href="#Ax"/><path d="M512.539 222.448a.756.756 0 0 1-.537-.223.76.76 0 0 1-.222-.536v-1.519c0-.201.08-.394.222-.537a.76.76 0 0 1 .537-.222.757.757 0 0 1 .759.759v1.519a.76.76 0 0 1-.759.759z"/><use xlink:href="#Ay"/><use xlink:href="#Ay" x="4.556"/><use xlink:href="#Ay" x="7.593"/><use xlink:href="#Aj" x="16.705" y="54.663"/><use xlink:href="#Az"/><use xlink:href="#Aq" y="18.221"/><use xlink:href="#Ap" x="9.112" y="18.221"/><use xlink:href="#Ap" x="13.668" y="18.221"/><use xlink:href="#Ap" x="16.705" y="18.221"/><use xlink:href="#Ar" y="18.221"/><use xlink:href="#As" y="18.221"/><path d="M512.539 231.558a.76.76 0 0 1-.759-.759v-1.518a.76.76 0 0 1 .222-.537.756.756 0 0 1 .537-.223.76.76 0 0 1 .759.76v1.518a.76.76 0 0 1-.222.537.763.763 0 0 1-.537.222z"/><use xlink:href="#BA"/><use xlink:href="#BA" x="4.556"/><use xlink:href="#BA" x="7.593"/><use xlink:href="#Ar" x="-7.593"/><use xlink:href="#Au" x="-7.593"/><use xlink:href="#Am" x="4.556" y="25.813"/><use xlink:href="#Aj" x="9.112" y="54.663"/><use xlink:href="#Ar" x="-7.593" y="18.221"/><use xlink:href="#BB"/><use xlink:href="#BB" x="7.593"/><use xlink:href="#BC"/><use xlink:href="#Ap" x="33.41"/><use xlink:href="#As" x="12.149"/><use xlink:href="#q" x="165.531" y="-28.85"/><use xlink:href="#At" x="-9.112"/><use xlink:href="#At" x="24.298"/><use xlink:href="#Av" x="12.149"/><use xlink:href="#BD"/><use xlink:href="#Aw" x="-9.112"/><use xlink:href="#Aw" x="24.298"/><use xlink:href="#Ax" x="12.149"/><use xlink:href="#BE"/><use xlink:href="#Ay" x="-9.112"/><use xlink:href="#Ay" x="24.298"/><use xlink:href="#Az" x="12.149"/><use xlink:href="#Ao" y="18.221"/><use xlink:href="#Ap" y="18.221"/><use xlink:href="#Ap" x="33.41" y="18.221"/><use xlink:href="#As" x="12.149" y="18.221"/><path d="M503.427 231.558a.763.763 0 0 1-.537-.222.76.76 0 0 1-.222-.537v-1.518a.76.76 0 0 1 .759-.76c.202 0 .395.08.537.223a.76.76 0 0 1 .222.537v1.518a.76.76 0 0 1-.759.759z"/><use xlink:href="#BA" x="-9.112"/><use xlink:href="#BF"/><use xlink:href="#BG"/><use xlink:href="#BF" x="9.112"/><use xlink:href="#BF" x="12.149"/><use xlink:href="#BF" x="13.668"/><use xlink:href="#BF" x="16.705"/><use xlink:href="#BF" x="18.224"/><use xlink:href="#BG" x="13.668"/><use xlink:href="#BH"/><use xlink:href="#BI"/><use xlink:href="#Ak" x="12.149" y="54.663"/><use xlink:href="#BF" x="33.41"/><use xlink:href="#BI" x="10.63"/><use xlink:href="#BH" x="-25.817"/><use xlink:href="#BA" x="24.298"/><use xlink:href="#BC" x="12.149"/><use xlink:href="#An" y="7.592"/><use xlink:href="#Ah" x="-4.556" y="39.479"/><use xlink:href="#BD" x="25.817" y="-25.813"/><use xlink:href="#Ax" x="1.519" y="-25.813"/><use xlink:href="#Aw" x="21.261" y="-25.813"/><path d="M529.244 199.672a.76.76 0 0 1-.759-.76v-1.518a.757.757 0 0 1 .759-.759.76.76 0 0 1 .537.222.763.763 0 0 1 .222.537v1.518a.76.76 0 0 1-.222.537.756.756 0 0 1-.537.223z"/><use xlink:href="#Ax" x="1.519" y="-18.221"/><use xlink:href="#Ai" x="12.149" y="39.479"/><use xlink:href="#Ay" x="9.112" y="-44.034"/><use xlink:href="#BF" x="18.224" y="-54.663"/><use xlink:href="#Ag" x="1.519" y="44.034"/><use xlink:href="#Aw" x="9.112" y="-25.813"/><use xlink:href="#Ai" y="39.479"/><use xlink:href="#Ay" x="9.112" y="-54.663"/><use xlink:href="#Aj" y="10.629"/><use xlink:href="#k" x="214.127" y="-68.329"/><use xlink:href="#k" x="218.683" y="-68.329"/><use xlink:href="#o" x="215.646" y="-68.329"/><use xlink:href="#q" x="191.348" y="-68.329"/><use xlink:href="#Ak" x="-4.556"/><use xlink:href="#Al" x="-4.556"/><use xlink:href="#BH" y="-54.663"/><path d="M529.244 187.524a.757.757 0 0 1-.759-.759v-1.518a.76.76 0 0 1 .759-.76c.202 0 .395.08.537.223a.76.76 0 0 1 .222.537v1.518c0 .201-.08.394-.222.537a.76.76 0 0 1-.537.222z"/><use xlink:href="#BE" x="25.817" y="-44.034"/><use xlink:href="#BE" x="25.817" y="-54.663"/><path d="M514.058 163.23a.761.761 0 0 1-.76-.759v-1.519a.76.76 0 0 1 .76-.759.76.76 0 0 1 .759.759v1.519a.761.761 0 0 1-.759.759z"/><use xlink:href="#Al" x="-12.149"/><use xlink:href="#Ag" x="13.668" y="44.034"/><use xlink:href="#Ag" x="16.705" y="44.034"/><use xlink:href="#Ag" x="-16.705" y="44.034"/><use xlink:href="#Az" x="1.519" y="-59.218"/><path d="M523.929 252.057a1.52 1.52 0 0 1-1.519-1.519v-7.592c0-.402.16-.789.445-1.073a1.52 1.52 0 0 1 1.074-.445c.402 0 .789.16 1.073.445a1.52 1.52 0 0 1 .445 1.073v7.592a1.52 1.52 0 0 1-.445 1.074 1.516 1.516 0 0 1-1.073.445zm-6.075 0a1.52 1.52 0 0 1-1.519-1.519v-7.592c0-.402.16-.789.445-1.073a1.52 1.52 0 0 1 2.148 0c.285.284.445.671.445 1.073v7.592a1.52 1.52 0 0 1-1.519 1.519zm-9.112 0c-.402 0-.789-.16-1.073-.445a1.52 1.52 0 0 1-.445-1.073v-6.074a1.52 1.52 0 0 1 1.518-1.518 1.52 1.52 0 0 1 1.519 1.518v6.074c0 .402-.16.789-.445 1.073a1.52 1.52 0 0 1-1.074.445zm28.855 0a1.52 1.52 0 0 1-1.074-.445 1.516 1.516 0 0 1-.445-1.073v-6.074a1.52 1.52 0 0 1 1.519-1.518 1.52 1.52 0 0 1 1.518 1.518v6.074c0 .402-.16.789-.445 1.073a1.52 1.52 0 0 1-1.073.445zm-7.594 0c-.402 0-.789-.16-1.073-.445a1.52 1.52 0 0 1-.445-1.074v-7.592c0-.402.16-.789.445-1.073a1.52 1.52 0 0 1 2.147 0c.285.284.445.671.445 1.073v7.592a1.52 1.52 0 0 1-1.519 1.519z"/></g><path d="M504.186 194.357h-1.518v6.074h1.518v-6.074zm39.485 0h-1.519v6.074h1.519v-6.074z" class="C"/><path d="M525.448 139.694h-1.519v4.555h1.519v-4.555z" style="mix-blend-mode:multiply" class="D B"/><g class="C"><path d="M511.78 232.317h-1.519v-28.849h1.519v28.849zM499.631 241.428a10.63 10.63 0 0 0 10.63-10.629 10.63 10.63 0 0 0-10.63-10.629c-5.871 0-10.631 4.759-10.631 10.629s4.76 10.629 10.631 10.629z"/></g><use xlink:href="#Af" x="467.739" style="mix-blend-mode:multiply" class="D B"/><g class="B"><path d="M499.631 252.057a1.52 1.52 0 0 1-1.519-1.519v-13.665a1.52 1.52 0 0 1 1.519-1.519c.402 0 .789.16 1.073.445a1.52 1.52 0 0 1 .445 1.074v13.665a1.52 1.52 0 0 1-.445 1.074 1.516 1.516 0 0 1-1.073.445z"/><path d="M499.631 241.428a10.64 10.64 0 0 1-5.821-1.937 10.63 10.63 0 0 1-3.781-4.831 10.627 10.627 0 0 1 2.495-11.478 10.64 10.64 0 0 1 11.546-2.171 10.634 10.634 0 0 1 4.722 3.916 10.63 10.63 0 0 1 1.773 5.872c-.044 2.858-1.22 5.582-3.27 7.574s-4.806 3.091-7.664 3.055zm0-18.221a7.593 7.593 0 0 0-4.133 1.424 7.59 7.59 0 0 0-2.662 3.467 7.587 7.587 0 0 0 1.836 8.167 7.59 7.59 0 0 0 8.234 1.514 7.59 7.59 0 0 0 3.36-2.795 7.6 7.6 0 0 0 1.262-4.185 7.76 7.76 0 0 0-7.897-7.592z"/></g><path d="M546.708 241.428c5.871 0 10.631-4.759 10.631-10.629s-4.76-10.629-10.631-10.629a10.63 10.63 0 0 0-10.63 10.629 10.63 10.63 0 0 0 10.63 10.629z" class="C"/><use xlink:href="#Af" x="514.817" style="mix-blend-mode:multiply" class="D B"/><g class="B"><path d="M546.708 252.057c-.402 0-.789-.16-1.073-.445a1.52 1.52 0 0 1-.445-1.074v-13.665a1.52 1.52 0 0 1 .445-1.074 1.516 1.516 0 0 1 1.073-.445 1.52 1.52 0 0 1 1.519 1.519v13.665a1.52 1.52 0 0 1-1.519 1.519z"/><path d="M546.708 241.428a10.64 10.64 0 0 1-9.602-6.768 10.627 10.627 0 0 1 2.496-11.478 10.64 10.64 0 0 1 11.545-2.171 10.63 10.63 0 0 1 4.723 3.916 10.62 10.62 0 0 1 1.772 5.872 10.787 10.787 0 0 1-3.269 7.574 10.8 10.8 0 0 1-7.665 3.055zm0-18.221a7.593 7.593 0 0 0-4.132 1.424 7.6 7.6 0 0 0-2.663 3.467 7.587 7.587 0 0 0-.309 4.359 7.58 7.58 0 0 0 2.145 3.808 7.59 7.59 0 0 0 8.235 1.514 7.59 7.59 0 0 0 3.36-2.795 7.6 7.6 0 0 0 1.261-4.185 7.755 7.755 0 0 0-2.38-5.427 7.76 7.76 0 0 0-5.517-2.165z"/></g><g class="C"><path d="M220.202 30.368h-24.298v4.555h24.298v-4.555zm9.112 183.729h-42.522v36.442h42.522v-36.442z"/><path d="M215.646 238.391h-15.187v10.629h15.187v-10.629z"/></g><path d="M256.649 253.575h-97.193a3.04 3.04 0 0 1-2.147-.889 3.036 3.036 0 0 1 0-4.295 3.04 3.04 0 0 1 2.147-.889h97.193a3.04 3.04 0 0 1 3.037 3.037 3.04 3.04 0 0 1-3.037 3.036z" class="B"/><g class="C"><path d="M229.314 214.097v.759L208.053 36.442h18.223l3.038 177.655zM208.053 37.201l21.261 178.414h-42.522l21.261-178.414zM208.053 36.442l-21.261 178.414v-.759l3.037-177.655h18.224z"/></g><path d="M218.683 31.887h-7.593v3.037h7.593v-3.037zM200.459 238.391v9.111h1.519v-6.074a1.52 1.52 0 0 1 .445-1.074 1.517 1.517 0 0 1 1.074-.444h12.149v-1.519h-15.187z" style="mix-blend-mode:multiply" class="D B"/><g class="B"><path d="M229.314 252.057h-42.522a1.52 1.52 0 0 1-1.074-.445 1.516 1.516 0 0 1-.445-1.073v-36.442l3.037-177.655a1.52 1.52 0 0 1 1.519-1.518h36.447a1.52 1.52 0 0 1 1.519 1.518l3.037 177.655v36.442a1.516 1.516 0 0 1-1.518 1.518zm-41.004-3.037h39.485v-34.923L224.758 37.96h-33.41l-3.038 176.896v34.164z"/><path d="M229.314 217.133h-42.522a1.51 1.51 0 0 1-1.139-.516 1.52 1.52 0 0 1-.309-.553 1.514 1.514 0 0 1-.056-.631l21.261-178.414a1.52 1.52 0 0 1 1.519-1.518 1.52 1.52 0 0 1 1.518 1.518l21.261 178.125a1.51 1.51 0 0 1 .054.73 1.524 1.524 0 0 1-.294.671 1.52 1.52 0 0 1-1.293.588zm-40.837-3.036h39.09L208.053 50.108l-19.576 163.989z"/><path d="M220.202 37.961h-24.298a1.52 1.52 0 0 1-1.519-1.518v-6.074a1.52 1.52 0 0 1 1.519-1.518h24.298a1.52 1.52 0 0 1 1.518 1.518v6.074a1.52 1.52 0 0 1-1.518 1.518zm-22.78-3.037h21.261v-3.037h-21.261v3.037z"/><path d="M208.053 31.887a1.52 1.52 0 0 1-1.519-1.518V1.518A1.52 1.52 0 0 1 208.053 0a1.52 1.52 0 0 1 1.519 1.518v28.85a1.52 1.52 0 0 1-1.519 1.518zm-8.353 2.277a.76.76 0 0 1-.759-.759v-3.037a.76.76 0 0 1 1.296-.537.76.76 0 0 1 .223.537v3.037a.76.76 0 0 1-.76.759z"/><use xlink:href="#BJ"/><use xlink:href="#BJ" x="3.037"/><use xlink:href="#BJ" x="6.074"/><path d="M211.85 34.164a.76.76 0 0 1-.537-.222.758.758 0 0 1-.223-.537v-3.037a.76.76 0 0 1 .223-.537.76.76 0 0 1 .537-.222.758.758 0 0 1 .759.759v3.037a.76.76 0 0 1-.759.759z"/><use xlink:href="#BJ" x="12.149"/><path d="M217.924 34.164a.76.76 0 0 1-.76-.759v-3.037a.76.76 0 0 1 1.297-.537.76.76 0 0 1 .222.537v3.037a.76.76 0 0 1-.759.759zm-1.519 216.375H199.7a.76.76 0 0 1-.759-.759v-12.148a.757.757 0 0 1 .759-.759h16.705a.76.76 0 0 1 .76.759v12.148c0 .201-.08.394-.223.536a.76.76 0 0 1-.537.223zm-15.945-1.519h15.186v-10.629H200.46v10.629zm3.796-2.277a.76.76 0 0 1-.759-.759v-6.074a.76.76 0 0 1 .222-.537.763.763 0 0 1 .537-.222.76.76 0 0 1 .759.759v6.074a.76.76 0 0 1-.759.759zm3.038 0a.756.756 0 0 1-.537-.223.76.76 0 0 1-.223-.536v-6.074c0-.202.08-.395.223-.537a.76.76 0 0 1 .537-.222c.201 0 .394.08.537.222a.76.76 0 0 1 .222.537v6.074a.76.76 0 0 1-.759.759zm3.037 0a.76.76 0 0 1-.759-.759v-6.074a.76.76 0 0 1 .759-.759c.201 0 .394.08.537.222a.76.76 0 0 1 .222.537v6.074a.76.76 0 0 1-.759.759zm3.037 0a.756.756 0 0 1-.537-.223.76.76 0 0 1-.222-.536v-6.074a.76.76 0 0 1 .759-.759c.201 0 .394.08.537.222a.76.76 0 0 1 .222.537v6.074a.76.76 0 0 1-.759.759zm-22.78-4.556a.76.76 0 0 1-.759-.759v-22.776c0-.202.08-.395.223-.537a.76.76 0 0 1 1.073 0 .756.756 0 0 1 .223.537v22.776a.76.76 0 0 1-.76.759z"/><use xlink:href="#BK"/><path d="M199.7 233.077a.76.76 0 0 1-.759-.759v-13.666a.76.76 0 0 1 .222-.537.763.763 0 0 1 .537-.222.76.76 0 0 1 .537.222.756.756 0 0 1 .223.537v13.666c0 .201-.08.394-.223.536a.76.76 0 0 1-.537.223zm6.075 0a.76.76 0 0 1-.759-.759v-13.666a.76.76 0 0 1 .222-.537.763.763 0 0 1 .537-.222.76.76 0 0 1 .759.759v13.666a.76.76 0 0 1-.759.759zm4.556 0a.76.76 0 0 1-.759-.759v-13.666a.76.76 0 0 1 .759-.759c.201 0 .394.08.537.222a.76.76 0 0 1 .222.537v13.666a.76.76 0 0 1-.759.759zm6.074 0a.76.76 0 0 1-.759-.759v-13.666a.76.76 0 0 1 .222-.537.763.763 0 0 1 .537-.222.76.76 0 0 1 .759.759v13.666a.76.76 0 0 1-.222.536.756.756 0 0 1-.537.223z"/><use xlink:href="#BK" x="25.817"/><use xlink:href="#BK" x="30.373"/></g><defs><path id="AG" d="M266.52 154.119a.763.763 0 0 1-.537-.222.76.76 0 0 1-.222-.537v-4.555a.76.76 0 0 1 .222-.537.763.763 0 0 1 .537-.222.76.76 0 0 1 .76.759v4.555a.76.76 0 0 1-.76.759z"/><path id="B" d="M416.106 188.284h-39.485a1.52 1.52 0 0 1-1.519-1.519c0-.402.16-.789.445-1.073a1.52 1.52 0 0 1 1.074-.445h39.485a1.516 1.516 0 0 1 1.518 1.518 1.52 1.52 0 0 1-.445 1.074 1.516 1.516 0 0 1-1.073.445z"/><path id="D" d="M391.808 168.544h-3.038a.76.76 0 0 1-.759-.759c0-.202.08-.395.223-.537a.76.76 0 0 1 .536-.222h3.038c.201 0 .394.08.537.222a.76.76 0 0 1 .222.537.757.757 0 0 1-.759.759z"/><path id="E" d="M397.882 168.544h-3.037a.76.76 0 0 1-.537-.222.763.763 0 0 1-.222-.537.76.76 0 0 1 .759-.759h3.037a.76.76 0 0 1 .759.759c0 .201-.08.394-.222.537a.76.76 0 0 1-.537.222z"/><path id="F" d="M410.031 168.544h-3.037a.76.76 0 0 1-.537-.222.763.763 0 0 1-.222-.537.76.76 0 0 1 .759-.759h3.037a.76.76 0 0 1 .537.222.756.756 0 0 1 .223.537.76.76 0 0 1-.76.759z"/><path id="G" d="M391.808 180.692h-3.038a.762.762 0 0 1-.759-.76.76.76 0 0 1 .759-.759h3.038a.757.757 0 0 1 .759.759.76.76 0 0 1-.759.76z"/><path id="H" d="M385.733 198.912h-3.037a.76.76 0 0 1-.537-.222.756.756 0 0 1-.223-.537.76.76 0 0 1 .76-.759h3.037a.757.757 0 0 1 .759.759.76.76 0 0 1-.222.537.763.763 0 0 1-.537.222z"/><path id="I" d="M391.808 198.912h-3.038a.76.76 0 0 1-.536-.222.756.756 0 0 1-.223-.537.76.76 0 0 1 .759-.759h3.038a.757.757 0 0 1 .759.759.76.76 0 0 1-.222.537.763.763 0 0 1-.537.222z"/><path id="J" d="M397.882 198.912h-3.037a.76.76 0 0 1-.759-.759c0-.201.08-.394.222-.537a.76.76 0 0 1 .537-.222h3.037a.76.76 0 0 1 .537.222.763.763 0 0 1 .222.537.76.76 0 0 1-.759.759z"/><path id="K" d="M410.031 198.912h-3.037a.76.76 0 0 1-.759-.759c0-.201.08-.394.222-.537a.76.76 0 0 1 .537-.222h3.037a.76.76 0 0 1 .76.759c0 .202-.08.395-.223.537a.76.76 0 0 1-.537.222z"/><path id="L" d="M391.808 204.986h-3.038a.76.76 0 0 1-.759-.759.76.76 0 0 1 .759-.759h3.038a.757.757 0 0 1 .537 1.296.757.757 0 0 1-.537.222z"/><path id="M" d="M391.808 223.207h-3.038a.76.76 0 0 1-.759-.759.76.76 0 0 1 .759-.759h3.038c.201 0 .394.08.537.222a.76.76 0 0 1 .222.537.757.757 0 0 1-.759.759z"/><path id="N" d="M385.733 229.281h-3.037a.761.761 0 0 1-.76-.759.758.758 0 0 1 .76-.76h3.037a.76.76 0 0 1 .759.76.76.76 0 0 1-.759.759z"/><path id="O" d="M391.808 229.281h-3.038a.761.761 0 0 1-.759-.759.758.758 0 0 1 .759-.76h3.038a.76.76 0 0 1 .759.76.76.76 0 0 1-.759.759z"/><path id="P" d="M397.882 229.281h-3.037a.76.76 0 0 1-.759-.759.76.76 0 0 1 .759-.76h3.037c.202 0 .395.08.537.223a.76.76 0 0 1 0 1.073.756.756 0 0 1-.537.223z"/><path id="Q" d="M410.031 229.281h-3.037a.76.76 0 0 1-.759-.759.76.76 0 0 1 .759-.76h3.037a.762.762 0 0 1 .76.76.762.762 0 0 1-.76.759z"/><path id="R" d="M369.788 251.298a.761.761 0 0 1-.76-.759v-4.556a.76.76 0 0 1 .76-.759.76.76 0 0 1 .759.759v4.556a.761.761 0 0 1-.759.759z"/><path id="S" d="M375.862 251.298a.761.761 0 0 1-.76-.759v-4.556a.76.76 0 0 1 .76-.759.757.757 0 0 1 .759.759v4.556a.76.76 0 0 1-.759.759z"/><path id="T" d="M400.16 251.298a.76.76 0 0 1-.759-.759v-4.556a.757.757 0 0 1 .759-.759.76.76 0 0 1 .76.759v4.556a.762.762 0 0 1-.76.759z"/><path id="U" d="M464.702 221.689h-7.593v1.518h7.593v-1.518z"/><path id="V" d="M378.14 232.317h-7.593v1.519h7.593v-1.519z"/><path id="W" d="M403.197 217.893a.761.761 0 0 1-.759-.759v-6.074a.76.76 0 0 1 .759-.759.76.76 0 0 1 .76.759v6.074a.762.762 0 0 1-.76.759z"/><path id="X" d="M315.876 129.066h-3.037a.762.762 0 0 1-.76-.76.762.762 0 0 1 .76-.759h3.037a.76.76 0 0 1 .759.759.76.76 0 0 1-.759.76z"/><path id="Y" d="M334.099 129.066h-3.037a.76.76 0 0 1-.759-.76.76.76 0 0 1 .759-.759h3.037a.761.761 0 0 1 .76.759.758.758 0 0 1-.76.76z"/><path id="Z" d="M315.876 138.176h-3.037a.76.76 0 0 1-.76-.759.76.76 0 0 1 .76-.759h3.037a.76.76 0 0 1 .759.759c0 .201-.08.394-.222.537a.76.76 0 0 1-.537.222z"/><path id="a" d="M334.099 138.176h-3.037a.757.757 0 0 1-.759-.759.76.76 0 0 1 .222-.537.763.763 0 0 1 .537-.222h3.037a.76.76 0 0 1 .76.759.76.76 0 0 1-.76.759z"/><path id="b" d="M315.876 147.287h-3.037a.762.762 0 0 1-.76-.76.76.76 0 0 1 .76-.759h3.037a.76.76 0 0 1 .537.222.763.763 0 0 1 .222.537.76.76 0 0 1-.759.76z"/><path id="c" d="M334.099 147.287h-3.037a.76.76 0 0 1-.759-.76.757.757 0 0 1 .759-.759h3.037a.76.76 0 0 1 .76.759.762.762 0 0 1-.76.76z"/><path id="d" d="M315.876 160.952h-3.037a.76.76 0 0 1-.76-.759.76.76 0 0 1 .76-.759h3.037a.76.76 0 0 1 .537.222.763.763 0 0 1 0 1.074.76.76 0 0 1-.537.222z"/><path id="e" d="M334.099 160.952h-3.037a.757.757 0 0 1-.537-1.296.757.757 0 0 1 .537-.222h3.037a.76.76 0 0 1 .76.759.76.76 0 0 1-.76.759z"/><path id="f" d="M315.876 165.507h-3.037a.76.76 0 0 1-.537-.222.756.756 0 0 1-.223-.537.76.76 0 0 1 .76-.759h3.037a.76.76 0 0 1 .537.222.763.763 0 0 1 .222.537.76.76 0 0 1-.759.759z"/><path id="g" d="M334.099 165.507h-3.037a.763.763 0 0 1-.537-.222.76.76 0 0 1-.222-.537.757.757 0 0 1 .759-.759h3.037a.76.76 0 0 1 .76.759c0 .202-.08.395-.223.537a.76.76 0 0 1-.537.222z"/><path id="h" d="M315.876 174.618h-3.037a.76.76 0 0 1-.76-.759c0-.202.08-.395.223-.537a.76.76 0 0 1 .537-.222h3.037a.76.76 0 0 1 .759.759c0 .201-.08.394-.222.537a.76.76 0 0 1-.537.222z"/><path id="i" d="M334.099 174.618h-3.037a.757.757 0 0 1-.759-.759.76.76 0 0 1 .222-.537.763.763 0 0 1 .537-.222h3.037a.76.76 0 0 1 .537.222.756.756 0 0 1 .223.537.76.76 0 0 1-.76.759z"/><path id="j" d="M331.062 229.281h-15.186a.76.76 0 0 1-.759-.759.76.76 0 0 1 .759-.76h15.186a.762.762 0 0 1 .76.76.762.762 0 0 1-.76.759z"/><path id="k" d="M302.968 242.187a.76.76 0 0 1-.537-.222.756.756 0 0 1-.223-.537v-1.518c0-.202.08-.395.223-.537a.76.76 0 0 1 .537-.222c.201 0 .394.08.537.222a.76.76 0 0 1 .222.537v1.518a.76.76 0 0 1-.222.537.763.763 0 0 1-.537.222z"/><path id="l" d="M302.968 251.298a.76.76 0 0 1-.76-.759v-6.074a.76.76 0 0 1 .76-.759.757.757 0 0 1 .759.759v6.074a.757.757 0 0 1-.759.759z"/><path id="m" d="M306.005 242.187a.76.76 0 0 1-.759-.759v-1.518a.76.76 0 0 1 .759-.759c.201 0 .394.08.537.222a.76.76 0 0 1 .222.537v1.518a.76.76 0 0 1-.222.537.763.763 0 0 1-.537.222z"/><path id="n" d="M306.005 251.298a.76.76 0 0 1-.537-.222.763.763 0 0 1-.222-.537v-6.074c0-.201.08-.394.222-.537a.76.76 0 0 1 .537-.222.757.757 0 0 1 .759.759v6.074a.757.757 0 0 1-.759.759z"/><path id="o" d="M309.042 242.187a.763.763 0 0 1-.537-.222.76.76 0 0 1-.222-.537v-1.518a.76.76 0 0 1 .222-.537.763.763 0 0 1 .537-.222.76.76 0 0 1 .537.222.756.756 0 0 1 .223.537v1.518c0 .202-.08.395-.223.537a.76.76 0 0 1-.537.222z"/><path id="p" d="M309.042 251.298a.757.757 0 0 1-.759-.759v-6.074a.757.757 0 0 1 .759-.759.76.76 0 0 1 .76.759v6.074a.76.76 0 0 1-.76.759z"/><path id="q" d="M337.896 242.187a.763.763 0 0 1-.537-.222.76.76 0 0 1-.222-.537v-1.518a.76.76 0 0 1 .222-.537.763.763 0 0 1 .537-.222.76.76 0 0 1 .759.759v1.518a.76.76 0 0 1-.759.759z"/><path id="r" d="M337.896 251.298a.757.757 0 0 1-.759-.759v-6.074a.757.757 0 0 1 .759-.759.76.76 0 0 1 .537.222.763.763 0 0 1 .222.537v6.074c0 .201-.08.394-.222.537a.76.76 0 0 1-.537.222z"/><path id="s" d="M343.971 242.187a.76.76 0 0 1-.759-.759v-1.518a.76.76 0 0 1 .759-.759.76.76 0 0 1 .759.759v1.518a.76.76 0 0 1-.759.759z"/><path id="t" d="M309.042 237.632a.763.763 0 0 1-.537-.222.76.76 0 0 1-.222-.537v-18.221a.757.757 0 0 1 .759-.759.76.76 0 0 1 .76.759v18.221c0 .202-.08.395-.223.537a.76.76 0 0 1-.537.222z"/><path id="u" d="M137.436 251.298a.757.757 0 0 1-.759-.759v-22.776a.76.76 0 0 1 .759-.76.762.762 0 0 1 .76.76v22.776a.76.76 0 0 1-.76.759z"/><path id="v" d="M151.863 142.731h-9.111a.76.76 0 0 1-.76-.759c0-.202.08-.395.223-.537a.76.76 0 0 1 .537-.222h9.111a.76.76 0 0 1 .537.222.756.756 0 0 1 .223.537.76.76 0 0 1-.76.759z"/><path id="w" d="M160.975 147.286H133.64a.76.76 0 0 1-.537-.222.756.756 0 0 1-.223-.537.76.76 0 0 1 .76-.759h27.335a.76.76 0 0 1 .76.759c0 .202-.08.395-.223.537a.76.76 0 0 1-.537.222z"/><path id="x" d="M160.975 174.618H133.64a.76.76 0 0 1-.76-.759c0-.202.08-.395.223-.537a.76.76 0 0 1 .537-.222h27.335a.76.76 0 0 1 .537.222.756.756 0 0 1 .223.537.76.76 0 0 1-.76.759z"/><path id="y" d="M164.013 198.913h-33.41a.762.762 0 0 1-.76-.76.762.762 0 0 1 .76-.759h33.41a.761.761 0 0 1 .759.759.758.758 0 0 1-.759.76z"/><path id="z" d="M170.087 239.91h-10.63a.761.761 0 0 1-.76-.759.758.758 0 0 1 .76-.76h10.63a.76.76 0 0 1 .759.76.76.76 0 0 1-.759.759z"/><path id="AA" d="M249.056 195.876a1.52 1.52 0 0 1-1.519-1.519v-92.623a1.52 1.52 0 0 1 1.519-1.518 1.52 1.52 0 0 1 1.519 1.518v92.623a1.52 1.52 0 0 1-1.519 1.519z"/><path id="AB" d="M261.205 103.252h-12.149a1.52 1.52 0 0 1-1.519-1.518 1.52 1.52 0 0 1 1.519-1.518h12.149a1.52 1.52 0 0 1 1.519 1.518 1.52 1.52 0 0 1-1.519 1.518z"/><path id="AC" d="M259.686 103.252a1.52 1.52 0 0 1-1.518-1.518V85.031a1.52 1.52 0 0 1 1.518-1.519 1.52 1.52 0 0 1 1.074.445c.285.285.445.671.445 1.074v16.703a1.52 1.52 0 0 1-1.519 1.518z"/><path id="AD" d="M254.371 252.057h-6.074a.76.76 0 0 1-.76-.759v-15.184a.762.762 0 0 1 .76-.76h6.074a.762.762 0 0 1 .76.76v15.184a.76.76 0 0 1-.76.759zm-5.315-1.518h4.556v-13.666h-4.556v13.666z"/><path id="AE" d="M266.52 108.567a.76.76 0 0 1-.759-.759v-4.556a.76.76 0 0 1 .759-.759.761.761 0 0 1 .76.759v4.556a.762.762 0 0 1-.76.759z"/><path id="AF" d="M266.52 123.751a.757.757 0 0 1-.759-.759v-4.555a.76.76 0 0 1 .759-.76.762.762 0 0 1 .76.76v4.555a.76.76 0 0 1-.76.759z"/><path id="C" d="M385.733 168.544h-3.037a.76.76 0 0 1-.76-.759c0-.202.08-.395.223-.537a.76.76 0 0 1 .537-.222h3.037c.201 0 .394.08.537.222a.76.76 0 0 1 .222.537.757.757 0 0 1-.759.759z"/><path id="AH" d="M266.52 161.711a.763.763 0 0 1-.537-.222.76.76 0 0 1-.222-.537v-4.555a.76.76 0 0 1 .222-.537.763.763 0 0 1 .537-.222.76.76 0 0 1 .76.759v4.555c0 .202-.08.395-.223.537a.76.76 0 0 1-.537.222z"/><path id="AI" d="M263.483 85.791a.76.76 0 0 1-.537-.222.756.756 0 0 1-.223-.537v-4.555a.76.76 0 0 1 .223-.537.76.76 0 0 1 1.074 0 .76.76 0 0 1 .222.537v4.555a.76.76 0 0 1-.759.759z"/><path id="AJ" d="M252.853 111.604a.762.762 0 0 1-.76-.76v-4.555a.76.76 0 0 1 .76-.759.757.757 0 0 1 .759.759v4.555a.76.76 0 0 1-.759.76z"/><path id="AK" d="M252.853 134.38a.76.76 0 0 1-.76-.759v-4.555a.762.762 0 0 1 .76-.76.76.76 0 0 1 .759.76v4.555a.757.757 0 0 1-.759.759z"/><path id="AL" d="M252.853 157.156a.76.76 0 0 1-.76-.759v-4.555c0-.202.08-.395.223-.537a.76.76 0 0 1 .537-.222c.201 0 .394.08.537.222a.76.76 0 0 1 .222.537v4.555a.757.757 0 0 1-.759.759z"/><path id="AM" d="M252.853 172.34a.76.76 0 0 1-.76-.759v-4.555c0-.202.08-.395.223-.537a.76.76 0 0 1 .537-.222c.201 0 .394.08.537.222a.76.76 0 0 1 .222.537v4.555a.76.76 0 0 1-.222.537.763.763 0 0 1-.537.222z"/><path id="AN" d="M257.409 111.604a.762.762 0 0 1-.76-.76v-4.555a.76.76 0 0 1 .76-.759.76.76 0 0 1 .759.759v4.555a.761.761 0 0 1-.759.76z"/><path id="AO" d="M257.409 134.38a.76.76 0 0 1-.76-.759v-4.555a.762.762 0 0 1 .76-.76.762.762 0 0 1 .759.76v4.555a.76.76 0 0 1-.759.759z"/><path id="AP" d="M257.409 149.564a.76.76 0 0 1-.76-.759v-4.556a.762.762 0 0 1 .76-.759.761.761 0 0 1 .759.759v4.556a.76.76 0 0 1-.759.759z"/><path id="AQ" d="M257.409 157.156a.76.76 0 0 1-.76-.759v-4.555c0-.202.08-.395.223-.537a.76.76 0 0 1 1.073 0 .756.756 0 0 1 .223.537v4.555a.76.76 0 0 1-.759.759z"/><path id="AR" d="M278.669 111.604a.762.762 0 0 1-.759-.76v-4.555a.76.76 0 0 1 .759-.759.76.76 0 0 1 .76.759v4.555a.762.762 0 0 1-.76.76z"/><path id="AS" d="M278.669 119.196a.761.761 0 0 1-.759-.759v-4.556a.76.76 0 0 1 .759-.759.76.76 0 0 1 .76.759v4.556a.762.762 0 0 1-.76.759z"/><path id="AT" d="M278.669 134.38a.76.76 0 0 1-.759-.759v-4.555a.761.761 0 0 1 .759-.76.758.758 0 0 1 .76.76v4.555a.76.76 0 0 1-.76.759z"/><path id="AU" d="M278.669 157.156a.76.76 0 0 1-.759-.759v-4.555c0-.202.08-.395.223-.537a.76.76 0 0 1 1.073 0 .756.756 0 0 1 .223.537v4.555a.76.76 0 0 1-.76.759z"/><path id="AV" d="M266.52 195.117a.76.76 0 0 1-.759-.76v-4.555a.757.757 0 0 1 .759-.759.76.76 0 0 1 .76.759v4.555a.762.762 0 0 1-.76.76z"/><path id="AW" d="M263.483 225.485a.761.761 0 0 1-.76-.759v-4.556a.762.762 0 0 1 .76-.759.76.76 0 0 1 .759.759v4.556a.76.76 0 0 1-.759.759z"/><path id="AX" d="M248.297 219.411a.76.76 0 0 1-.76-.759v-4.555a.76.76 0 0 1 .76-.759c.201 0 .394.08.537.222a.76.76 0 0 1 .222.537v4.555a.76.76 0 0 1-.222.537.763.763 0 0 1-.537.222z"/><path id="AY" d="M248.297 227.003a.76.76 0 0 1-.537-.222.756.756 0 0 1-.223-.537v-4.555a.76.76 0 0 1 .76-.759c.201 0 .394.08.537.222a.76.76 0 0 1 .222.537v4.555a.76.76 0 0 1-.222.537.763.763 0 0 1-.537.222z"/><path id="AZ" d="M254.371 204.227a.757.757 0 0 1-.759-.759v-4.555a.76.76 0 0 1 .759-.76.76.76 0 0 1 .759.76v4.555c0 .201-.08.394-.222.537a.76.76 0 0 1-.537.222z"/><path id="Aa" d="M254.371 219.411a.763.763 0 0 1-.537-.222.76.76 0 0 1-.222-.537v-4.555a.76.76 0 0 1 .222-.537.763.763 0 0 1 .537-.222.76.76 0 0 1 .759.759v4.555a.76.76 0 0 1-.759.759z"/><path id="Ab" d="M62.264 253.575a1.52 1.52 0 0 1-1.519-1.518v-13.666c0-.402.16-.789.445-1.073a1.52 1.52 0 0 1 2.148 0c.285.284.445.671.445 1.073v13.666a1.52 1.52 0 0 1-1.519 1.518z"/><path id="Ac" d="M62.264 218.652a1.52 1.52 0 0 1-1.074-.445 1.516 1.516 0 0 1-.445-1.073v-3.037a1.52 1.52 0 0 1 1.519-1.519 1.52 1.52 0 0 1 1.519 1.519v3.037c0 .402-.16.789-.445 1.073a1.52 1.52 0 0 1-1.074.445z"/><path id="Ad" d="M59.986 223.966a.79.79 0 0 1-.532-.212.78.78 0 0 1-.228-.547.756.756 0 0 1 .213-.531.777.777 0 0 1 1.078 0 .777.777 0 0 1 .228.546.775.775 0 0 1-.227.533.78.78 0 0 1-.533.227v-.016z"/><path id="Ae" d="M92.637 252.057a1.52 1.52 0 0 1-1.074-.445 1.516 1.516 0 0 1-.445-1.073v-13.666a1.52 1.52 0 0 1 1.519-1.519 1.52 1.52 0 0 1 1.519 1.519v13.666c0 .402-.16.789-.445 1.073a1.52 1.52 0 0 1-1.074.445z"/><path id="Af" d="M42.522 230.799c0 5.861-6.834 10.629-10.631 10.629V220.17c3.797 0 10.631 4.768 10.631 10.629z"/><path id="Ag" d="M523.169 143.49a.757.757 0 0 1-.759-.759v-1.518a.76.76 0 0 1 .759-.76.762.762 0 0 1 .76.76v1.518a.76.76 0 0 1-.76.759z"/><path id="Ah" d="M521.651 160.193a.762.762 0 0 1-.76-.76v-1.518a.76.76 0 0 1 .76-.759.757.757 0 0 1 .759.759v1.518a.76.76 0 0 1-.759.76z"/><path id="Ai" d="M524.688 160.193a.76.76 0 0 1-.759-.76v-1.518a.757.757 0 0 1 .759-.759.76.76 0 0 1 .76.759v1.518a.762.762 0 0 1-.76.76z"/><path id="Aj" d="M517.095 167.785a.761.761 0 0 1-.76-.759v-1.519a.76.76 0 0 1 .76-.759.757.757 0 0 1 .759.759v1.519a.76.76 0 0 1-.759.759z"/><path id="Ak" d="M521.651 182.969a.76.76 0 0 1-.76-.759v-1.519a.762.762 0 0 1 .76-.759.76.76 0 0 1 .759.759v1.519a.757.757 0 0 1-.759.759z"/><path id="Al" d="M521.651 187.524a.76.76 0 0 1-.76-.759v-1.518a.762.762 0 0 1 .76-.76.76.76 0 0 1 .759.76v1.518a.757.757 0 0 1-.759.759z"/><path id="Am" d="M521.651 192.08a.762.762 0 0 1-.76-.76v-1.518a.76.76 0 0 1 .76-.759c.201 0 .394.08.537.222a.76.76 0 0 1 .222.537v1.518a.76.76 0 0 1-.759.76z"/><path id="An" d="M514.058 192.08a.762.762 0 0 1-.76-.76v-1.518a.76.76 0 0 1 .76-.759.76.76 0 0 1 .759.759v1.518a.761.761 0 0 1-.759.76z"/><path id="Ao" d="M503.427 208.782a.757.757 0 0 1-.759-.759v-1.519a.757.757 0 0 1 .759-.759.76.76 0 0 1 .537.222.763.763 0 0 1 .222.537v1.519c0 .201-.08.394-.222.537a.76.76 0 0 1-.537.222z"/><path id="Ap" d="M506.464 208.782a.757.757 0 0 1-.759-.759v-1.519a.757.757 0 0 1 .759-.759.76.76 0 0 1 .76.759v1.519a.76.76 0 0 1-.76.759z"/><path id="Aq" d="M512.539 208.782a.76.76 0 0 1-.537-.222.763.763 0 0 1-.222-.537v-1.519c0-.201.08-.394.222-.537a.76.76 0 0 1 .537-.222.757.757 0 0 1 .759.759v1.519a.757.757 0 0 1-.759.759z"/><path id="Ar" d="M533.8 208.782a.76.76 0 0 1-.76-.759v-1.519a.76.76 0 0 1 .76-.759.757.757 0 0 1 .759.759v1.519a.757.757 0 0 1-.759.759z"/><path id="As" d="M530.762 208.782a.76.76 0 0 1-.759-.759v-1.519a.76.76 0 0 1 .759-.759.76.76 0 0 1 .76.759v1.519a.76.76 0 0 1-.76.759z"/><path id="At" d="M515.576 213.337a.763.763 0 0 1-.537-.222.76.76 0 0 1-.222-.537v-1.518a.76.76 0 0 1 .222-.537.763.763 0 0 1 .537-.222.76.76 0 0 1 .537.222.756.756 0 0 1 .223.537v1.518a.76.76 0 0 1-.76.759z"/><path id="Au" d="M533.8 213.337a.76.76 0 0 1-.76-.759v-1.518c0-.202.08-.395.223-.537a.76.76 0 0 1 .537-.222c.201 0 .394.08.537.222a.76.76 0 0 1 .222.537v1.518a.76.76 0 0 1-.222.537.763.763 0 0 1-.537.222z"/><path id="Av" d="M530.762 213.337a.76.76 0 0 1-.759-.759v-1.518c0-.202.08-.395.223-.537a.76.76 0 0 1 1.073 0 .756.756 0 0 1 .223.537v1.518a.76.76 0 0 1-.76.759z"/><path id="Aw" d="M515.576 217.893a.76.76 0 0 1-.759-.76v-1.518a.76.76 0 0 1 .222-.537.763.763 0 0 1 .537-.222.76.76 0 0 1 .76.759v1.518a.762.762 0 0 1-.76.76z"/><path id="Ax" d="M530.762 217.893a.762.762 0 0 1-.759-.76v-1.518a.76.76 0 0 1 .759-.759.76.76 0 0 1 .76.759v1.518a.762.762 0 0 1-.76.76z"/><path id="Ay" d="M515.576 222.448a.76.76 0 0 1-.759-.759v-1.519a.757.757 0 0 1 .759-.759.76.76 0 0 1 .76.759v1.519a.762.762 0 0 1-.76.759z"/><path id="Az" d="M530.762 222.448a.761.761 0 0 1-.759-.759v-1.519a.76.76 0 0 1 .759-.759.76.76 0 0 1 .76.759v1.519a.762.762 0 0 1-.76.759z"/><path id="BA" d="M515.576 231.558a.763.763 0 0 1-.537-.222.76.76 0 0 1-.222-.537v-1.518a.76.76 0 0 1 .759-.76.762.762 0 0 1 .76.76v1.518a.76.76 0 0 1-.76.759z"/><path id="BB" d="M526.207 231.558a.76.76 0 0 1-.76-.759v-1.518a.762.762 0 0 1 .76-.76.76.76 0 0 1 .759.76v1.518a.76.76 0 0 1-.222.537.763.763 0 0 1-.537.222z"/><path id="BC" d="M530.762 231.558a.76.76 0 0 1-.759-.759v-1.518a.761.761 0 0 1 .759-.76.758.758 0 0 1 .76.76v1.518a.76.76 0 0 1-.76.759z"/><path id="BD" d="M503.427 217.893a.76.76 0 0 1-.759-.76v-1.518a.76.76 0 0 1 .222-.537.763.763 0 0 1 .537-.222.76.76 0 0 1 .759.759v1.518a.76.76 0 0 1-.222.537.756.756 0 0 1-.537.223z"/><path id="BE" d="M503.427 222.448a.76.76 0 0 1-.759-.759v-1.519a.757.757 0 0 1 .759-.759.76.76 0 0 1 .537.222.763.763 0 0 1 .222.537v1.519a.76.76 0 0 1-.222.536.756.756 0 0 1-.537.223z"/><path id="BF" d="M506.464 237.632a.757.757 0 0 1-.759-.759v-1.519a.76.76 0 0 1 .759-.759.761.761 0 0 1 .76.759v1.519a.76.76 0 0 1-.76.759z"/><path id="BG" d="M514.058 237.632a.76.76 0 0 1-.76-.759v-1.519a.762.762 0 0 1 .76-.759.761.761 0 0 1 .759.759v1.519a.76.76 0 0 1-.759.759z"/><path id="BH" d="M529.244 237.632a.757.757 0 0 1-.759-.759v-1.519a.76.76 0 0 1 .759-.759c.202 0 .395.08.537.223a.76.76 0 0 1 .222.536v1.519c0 .201-.08.394-.222.537a.76.76 0 0 1-.537.222z"/><path id="BI" d="M532.281 237.632a.76.76 0 0 1-.759-.759v-1.519a.761.761 0 0 1 .759-.759.758.758 0 0 1 .76.759v1.519a.76.76 0 0 1-.76.759z"/><path id="BJ" d="M202.738 34.164a.76.76 0 0 1-.759-.759v-3.037a.76.76 0 0 1 .759-.759.76.76 0 0 1 .759.759v3.037a.76.76 0 0 1-.759.759z"/><path id="BK" d="M195.144 242.187a.757.757 0 0 1-.759-.759v-22.776a.76.76 0 0 1 .222-.537.763.763 0 0 1 .537-.222.76.76 0 0 1 .537.222.756.756 0 0 1 .223.537v22.776a.76.76 0 0 1-.76.759z"/></defs></svg>